<svg width="833" height="239" viewBox="0 0 833 239" fill="none" xmlns="http://www.w3.org/2000/svg">
<g clip-path="url(#clip0_732_3046)">
<path opacity="0.989" fill-rule="evenodd" clip-rule="evenodd" d="M714.02 -0.169434C723.924 -0.169434 733.825 -0.169434 743.73 -0.169434C743.638 30.4117 743.73 60.9919 744.008 91.5714C760.351 73.0875 776.639 54.5247 792.877 35.8837C806.205 35.7144 819.533 35.6579 832.861 35.7144C832.861 35.8272 832.861 35.9402 832.861 36.0529C815.887 55.4488 798.949 74.9141 782.048 94.4488C798.947 121.65 815.884 148.789 832.861 175.865C832.861 175.977 832.861 176.09 832.861 176.203C820.921 176.26 808.982 176.203 797.042 176.034C785.46 156.426 773.846 136.848 762.195 117.299C756.086 124.296 749.977 131.292 743.869 138.288C743.73 151.039 743.683 163.79 743.73 176.542C733.825 176.542 723.924 176.542 714.02 176.542C714.02 117.638 714.02 58.7343 714.02 -0.169434Z" fill="black"/>
<path opacity="0.996" fill-rule="evenodd" clip-rule="evenodd" d="M-0.138672 128.471C-0.138672 122.378 -0.138672 116.284 -0.138672 110.191C3.49562 69.4029 19.5077 38.2019 47.8977 16.588C72.6841 -0.361124 98.7848 -4.19777 126.2 5.07807C159.725 18.5315 181.8 45.7829 192.423 86.8323C200.343 124.369 195.16 158.899 176.874 190.422C165.376 208.951 150.706 222.323 132.864 230.537C122.828 232.517 115.655 227.947 111.344 216.827C108.463 205.022 111.193 195.712 119.536 188.898C140.891 178.095 153.802 158.855 158.27 131.179C161.292 99.1161 151.897 74.1217 130.087 56.1956C113.052 44.0645 95.1885 41.9206 76.4973 49.7636C54.0999 61.0498 41.0035 81.3052 37.2075 110.529C35.2186 141.391 44.7056 165.37 65.6683 182.466C69.0306 184.967 72.5478 187.111 76.2197 188.898C85.1289 196.285 87.6742 206.158 83.8555 218.519C79.5961 227.859 73.0709 231.978 64.28 230.876C62.857 230.583 61.4686 230.131 60.115 229.521C35.5509 216.612 17.9192 195.229 7.21949 165.371C3.23126 153.483 0.778528 141.183 -0.138672 128.471Z" fill="#00AA12"/>
<path opacity="0.99" fill-rule="evenodd" clip-rule="evenodd" d="M315.846 238.831C312.144 238.831 308.44 238.831 304.739 238.831C289.681 237.695 275.89 231.996 263.367 221.735C260.194 218.771 257.186 215.555 254.342 212.087C254.157 211.861 254.157 211.636 254.342 211.41C261.002 203.798 267.62 196.125 274.196 188.39C285.352 200.712 298.497 205.959 313.624 204.131C324.134 203.008 332.047 196.971 337.365 186.02C338.492 183.116 339.233 180.069 339.586 176.88C339.772 171.125 339.772 165.37 339.586 159.615C333.722 167.171 326.55 171.966 318.067 174.003C301.215 178.27 285.388 175.111 270.586 164.524C252.297 149.095 243.735 127.711 244.902 100.373C246.87 73.4953 257.745 54.1431 277.528 42.3156C294.746 33.5711 311.961 33.5711 329.174 42.3156C333.03 44.6481 336.501 47.6383 339.586 51.2866C339.725 46.097 339.772 40.9063 339.725 35.7144C349.629 35.7144 359.531 35.7144 369.435 35.7144C369.482 83.4466 369.435 131.179 369.296 178.911C366.506 206.462 354.427 225.024 333.061 234.599C327.41 236.778 321.671 238.188 315.846 238.831ZM306.127 68.89C315.287 68.4191 323.431 71.6351 330.562 78.538C334.982 83.1403 337.62 88.9518 338.475 95.9721C338.661 102.517 338.661 109.062 338.475 115.607C337.273 124.742 333.43 131.682 326.952 136.426C315.948 143.594 304.564 144.609 292.799 139.473C282.706 133.926 277.105 124.391 276 110.867C274.545 96.9975 278.2 85.6569 286.968 76.8454C292.797 72.126 299.183 69.4743 306.127 68.89Z" fill="black"/>
<path opacity="0.988" fill-rule="evenodd" clip-rule="evenodd" d="M448.571 35.7147C465.267 35.5586 479.983 41.9341 492.72 54.8415C508.438 73.6436 514.036 96.2684 509.518 122.716C504.237 146.645 492.067 162.951 473.005 171.633C455.579 178.682 438.364 178.005 421.359 169.602C399.621 156.896 388.328 135.795 387.484 106.298C387.781 81.0821 396.48 61.5606 413.585 47.7324C424.389 39.9263 436.051 35.9205 448.571 35.7147ZM444.961 68.8903C455.851 67.5031 465.153 71.4527 472.866 80.7388C479.597 91.3015 481.727 103.15 479.253 116.284C475.896 130.985 468.074 139.843 455.79 142.858C445.761 145.041 436.689 142.445 428.579 135.072C421.631 127.322 418.205 117.674 418.305 106.128C419.016 84.9528 427.901 72.54 444.961 68.8903Z" fill="black"/>
<path opacity="0.988" fill-rule="evenodd" clip-rule="evenodd" d="M636.273 35.7147C651.603 35.5313 665.209 41.2297 677.09 52.8104C687.941 65.1077 694.189 80.2849 695.832 98.3422C696.202 104.879 696.341 111.423 696.249 117.977C666.725 117.977 637.198 117.977 607.673 117.977C608.334 125.058 610.925 130.87 615.448 135.411C625.971 145.087 637.728 148.247 650.712 144.89C654.532 143.864 658.142 142.171 661.541 139.812C664.617 137.416 667.533 134.764 670.287 131.856C677.162 137.418 683.965 143.116 690.696 148.952C690.979 149.307 691.023 149.702 690.834 150.137C677.67 167.578 661.288 176.379 641.687 176.542C628.332 176.66 615.789 172.88 604.064 165.201C586.279 151.811 577.302 132.233 577.13 106.467C577.18 83.0449 584.677 64.1436 599.621 49.7636C610.655 40.4839 622.873 35.8007 636.273 35.7147ZM634.607 66.1822C642.587 65.6107 649.992 67.8112 656.82 72.7834C662.04 77.3241 665.186 83.4738 666.261 91.2332C646.824 91.6282 627.388 91.6844 607.951 91.4024C609.806 80.9027 614.804 73.5678 622.945 69.3982C626.754 67.6917 630.642 66.6199 634.607 66.1822Z" fill="black"/>
<path opacity="0.989" fill-rule="evenodd" clip-rule="evenodd" d="M525.484 238.831C517.062 238.831 508.638 238.831 500.216 238.831C500.216 227.434 500.216 216.037 500.216 204.64C506.975 204.696 513.73 204.64 520.486 204.47C524.793 203.846 527.43 200.968 528.399 195.838C528.813 142.584 528.952 89.3225 528.816 36.0532C539.09 36.0532 549.363 36.0532 559.637 36.0532C559.684 88.5249 559.637 140.997 559.498 193.468C559.59 201.366 558.574 209.039 556.444 216.488C552.884 226.806 546.637 233.408 537.701 236.292C533.645 237.548 529.574 238.395 525.484 238.831Z" fill="black"/>
<path opacity="0.996" fill-rule="evenodd" clip-rule="evenodd" d="M93.7125 74.6452C111.641 73.5233 124.46 82.7763 132.169 102.404C136.992 118.789 135.141 133.91 126.616 147.767C116.06 162.061 103.056 166.969 87.6038 162.493C72.9194 156.551 64.1729 144.308 61.3643 125.763C59.7972 106.51 65.5821 91.559 78.7185 80.9079C83.4024 77.5657 88.4004 75.4783 93.7125 74.6452Z" fill="#00AA12"/>
</g>
<defs>
<clipPath id="clip0_732_3046">
<rect width="833" height="239" fill="white"/>
</clipPath>
</defs>
</svg>
