<svg width="759" height="345" viewBox="0 0 759 345" fill="none" xmlns="http://www.w3.org/2000/svg">
<path fill-rule="evenodd" clip-rule="evenodd" d="M145.439 50.767C143.989 47.6535 141.763 45.6649 138.757 44.7996C138.125 42.7021 136.789 41.7071 134.749 41.816C98.4308 22.3057 67.4739 29.7649 41.8794 64.1935C28.569 90.1947 27.0096 117.048 37.2025 144.753C37.1049 147.031 37.9962 148.522 39.875 149.228C65.6766 186.763 97.7466 195.215 136.085 174.589C138.125 174.698 139.462 173.703 140.094 171.606C144.547 169.617 147.666 166.135 149.447 161.163C154.464 152.946 158.026 143.995 160.137 134.31C161.408 132.193 161.853 129.707 161.474 126.851C140.539 126.851 119.605 126.851 98.67 126.851C98.67 117.403 98.67 107.953 98.67 98.5057C128.512 98.5057 158.356 98.5057 188.199 98.5057C194.117 142.139 181.201 176.7 149.447 202.188C121.482 218.119 92.5299 220.606 62.5912 209.647C52.4718 205.26 43.5644 199.045 35.8662 190.999C34.4164 187.886 32.1902 185.897 29.185 185.032C0.106846 151.112 -7.24253 111.828 7.13686 67.1771C8.83924 62.8642 10.8436 58.8855 13.15 55.2425C15.0287 54.5368 15.92 53.045 15.8225 50.767C17.871 44.4953 21.4347 39.523 26.5125 35.8486C28.74 34.3568 30.5212 32.3682 31.8575 29.8813C40.7823 19.4205 51.4723 11.9614 63.9275 7.50376C68.8208 7.17108 73.2745 5.67925 77.29 3.02826C111.201 -5.41105 140.599 3.78909 165.482 30.6272C158.983 38.6861 152.302 45.3993 145.439 50.767Z" fill="#4F8AF4"/>
<path fill-rule="evenodd" clip-rule="evenodd" d="M77.2902 3.02881C73.2748 5.6798 68.8211 7.17163 63.9277 7.50431C67.9432 4.85332 72.3969 3.36149 77.2902 3.02881Z" fill="#99B8F8"/>
<path fill-rule="evenodd" clip-rule="evenodd" d="M603.772 8.99561C613.126 8.99561 622.48 8.99561 631.834 8.99561C631.834 76.6249 631.834 144.256 631.834 211.885C622.48 211.885 613.126 211.885 603.772 211.885C603.772 144.256 603.772 76.6249 603.772 8.99561Z" fill="#3CAA58"/>
<path fill-rule="evenodd" clip-rule="evenodd" d="M31.8577 29.8809C30.5214 32.3677 28.7402 34.3564 26.5127 35.8482C26.9577 32.3677 28.7402 30.3776 31.8577 29.8809Z" fill="#BED3FB"/>
<path fill-rule="evenodd" clip-rule="evenodd" d="M134.749 41.8162C136.789 41.7073 138.126 42.7023 138.758 44.7998C136.717 44.9087 135.381 43.9137 134.749 41.8162Z" fill="#B8CEFB"/>
<path fill-rule="evenodd" clip-rule="evenodd" d="M138.758 44.7998C141.763 45.6651 143.989 47.6537 145.439 50.7671C142.434 49.9019 140.208 47.9133 138.758 44.7998Z" fill="#AFC6FA"/>
<path fill-rule="evenodd" clip-rule="evenodd" d="M15.8223 50.7666C15.9198 53.0446 15.0286 54.5365 13.1498 55.2421C13.0522 52.9641 13.9435 51.4722 15.8223 50.7666Z" fill="#BCD0FB"/>
<path fill-rule="evenodd" clip-rule="evenodd" d="M289.754 85.0792C290.183 87.3885 291.519 88.3836 293.763 88.0628C294.477 90.9659 296.259 92.4578 299.108 92.5383C302.225 95.0252 304.898 98.0089 307.125 101.489C307.028 103.767 307.919 105.259 309.798 105.965C311.676 106.67 312.568 108.162 312.47 110.44C312.373 112.718 313.264 114.21 315.143 114.916C328.414 150.472 321.733 180.558 295.099 205.172C279.735 215.815 263.255 219.046 245.658 214.869C242.965 212.744 239.848 211.751 236.304 211.885C224.598 207.257 215.245 199.301 208.243 188.016C208.17 184.835 206.834 182.847 204.234 182.048C194.109 159.772 193.664 137.395 202.898 114.916C204.776 114.21 205.668 112.718 205.57 110.44C205.473 108.162 206.364 106.67 208.243 105.965C210.121 105.259 211.013 103.767 210.915 101.489C211.806 99.5007 213.143 98.0089 214.924 97.0138C218.383 95.6428 221.056 93.156 222.941 89.5547C224.982 89.6636 226.318 88.6685 226.95 86.571C229.196 84.3213 231.869 82.8295 234.968 82.0955C238.511 82.2298 241.629 81.2362 244.321 79.1118C259.951 74.7795 275.095 76.7696 289.754 85.0792ZM276.391 110.44C277.023 112.538 278.36 113.533 280.4 113.424C291.408 125.932 295.417 140.85 292.426 158.179C291.041 160.312 290.149 162.799 289.754 165.638C288.185 167.151 287.295 169.14 287.081 171.606C283.518 174.589 280.4 178.07 277.728 182.048C266.361 189.285 254.782 189.784 242.985 183.54C241.929 182.196 240.593 181.201 238.976 180.557C236.749 177.076 234.076 174.092 230.959 171.606C231.056 169.328 230.165 167.836 228.286 167.13C222.408 150.31 223.968 134.396 232.963 119.391C245.531 105.185 260.008 102.201 276.391 110.44Z" fill="#EC4D3D"/>
<path fill-rule="evenodd" clip-rule="evenodd" d="M447.431 107.456C447.334 109.734 448.225 111.226 450.104 111.932C464.731 145.849 459.83 175.935 435.405 202.188C419.255 215.094 401.438 219.32 381.955 214.869C379.263 212.744 376.145 211.751 372.601 211.885C350.583 202.958 337.443 185.552 333.182 159.671C330.669 142.592 333.119 126.68 340.531 111.932C342.41 111.226 343.301 109.734 343.204 107.456C355.647 87.3256 373.018 76.8828 395.318 76.1279C417.617 76.8828 434.988 87.3256 447.431 107.456ZM412.689 110.44C413.321 112.538 414.657 113.533 416.698 113.424C435.203 137.089 434.312 159.715 414.025 181.302C398.975 191.01 384.721 189.765 371.265 177.573C370.947 174.732 369.611 172.742 367.256 171.605C367.354 169.327 366.463 167.835 364.584 167.13C356.965 144.731 361.418 126.083 377.946 111.186C389.419 104.483 401.001 104.234 412.689 110.44Z" fill="#FCBF22"/>
<path fill-rule="evenodd" clip-rule="evenodd" d="M559.676 91.0463C559.757 91.8563 560.201 92.3531 561.013 92.5381C562.314 89.1919 562.76 85.7115 562.349 82.0953C570.811 82.0953 579.275 82.0953 587.738 82.0953C587.961 129.837 587.738 177.576 587.069 225.311C585.561 238.123 580.884 249.063 573.039 258.132C571.16 258.837 570.269 260.329 570.366 262.607C554.731 276.845 536.913 281.818 516.916 277.526C514.224 275.401 511.106 274.408 507.563 274.542C501.329 272.561 495.984 269.08 491.528 264.099C490.509 261.47 488.727 259.979 486.183 259.624C480.156 254.128 476.147 247.165 474.156 238.738C474.601 237.743 475.048 236.749 475.493 235.754C482.58 232.284 489.706 228.802 496.873 225.311C499.227 227.084 500.563 229.571 500.881 232.771C500.784 235.049 501.675 236.54 503.554 237.246C511.551 246.363 521.35 250.838 532.951 250.673C535.66 250.914 538.332 250.665 540.969 249.927C541.712 249.355 542.157 248.609 542.305 247.689C553.107 241.522 559.342 231.577 561.013 217.852C562.762 212.107 562.762 206.14 561.013 199.95C559.946 200.632 559.501 201.627 559.676 202.934C550.932 212.659 540.242 217.135 527.606 216.36C523.791 216.356 520.228 215.859 516.916 214.869C514.224 212.744 511.106 211.751 507.563 211.885C502.896 210.527 498.888 208.042 495.536 204.426C494.904 202.328 493.568 201.333 491.528 201.442C471.589 182.899 464.463 159.527 470.148 131.326C472.05 128.32 472.94 124.839 472.82 120.883C474.714 113.157 478.276 106.693 483.51 101.489C486.183 99.5005 488.41 97.0136 490.191 94.0299C500.562 82.4473 513.256 76.48 528.274 76.1279C535.395 76.8306 542.3 78.5716 548.986 81.3494C553.379 83.5379 556.942 86.7707 559.676 91.0463ZM503.554 173.097C503.651 170.819 502.76 169.327 500.881 168.622C492.745 147.069 496.307 128.421 511.571 112.678C533.04 99.781 549.296 105.499 560.344 129.834C566.03 149.477 562.245 166.633 548.986 181.302C531.902 191.949 516.759 189.215 503.554 173.097Z" fill="#4E89F4"/>
<path fill-rule="evenodd" clip-rule="evenodd" d="M728.044 83.5871C728.473 85.8965 729.809 86.8916 732.052 86.5708C732.767 89.4739 734.548 90.9658 737.397 91.0463C739.625 92.5381 741.406 94.5268 742.742 97.0136C743.06 99.8541 744.397 101.844 746.751 102.981C746.654 105.259 747.545 106.751 749.424 107.456C749.326 109.735 750.217 111.226 752.096 111.932C754.892 115.793 756.673 120.268 757.441 125.359C757.531 127.535 757.086 129.524 756.105 131.326C729.742 143.46 703.462 155.892 677.266 168.622C678.104 169.99 678.55 171.482 678.602 173.097C679.939 177.573 682.611 180.556 686.62 182.048C698.39 189.378 710.416 189.874 722.699 183.54C724.739 183.649 726.075 182.654 726.707 180.556C729.795 176.607 732.913 172.629 736.061 168.622C743.936 173.258 751.063 178.977 757.441 185.778C741.359 211.152 719.534 220.849 691.965 214.869C689.272 212.744 686.155 211.751 682.611 211.885C678.622 210.653 675.06 208.664 671.921 205.918C671.289 203.82 669.953 202.825 667.912 202.934C666.576 202.437 665.685 201.442 665.24 199.95C663.79 196.837 661.564 194.848 658.559 193.983C657.667 192.491 656.777 190.999 655.886 189.507C655.814 186.327 654.478 184.338 651.877 183.54C644.02 166.412 641.794 148.51 645.196 129.834C647.099 126.828 647.989 123.348 647.869 119.391C649.643 112.432 652.761 106.464 657.222 101.489C660.786 98.5055 663.904 95.025 666.576 91.0463C666.576 90.0513 667.021 89.5545 667.912 89.5545C669.953 89.6634 671.289 88.6683 671.921 86.5708C675.379 83.4007 679.388 81.412 683.947 80.6035C687.491 80.7377 690.609 79.7442 693.301 77.6198C705.436 75.5775 717.017 77.5661 728.044 83.5871ZM706.664 104.473C709.071 105.902 711.744 106.897 714.681 107.456C719.294 109.869 722.858 113.598 725.371 118.645C707.592 126.161 690.221 134.366 673.257 143.261C671.973 140.627 671.527 137.644 671.921 134.31C677.54 116.14 689.121 106.194 706.664 104.473Z" fill="#EC4E3E"/>
<path fill-rule="evenodd" clip-rule="evenodd" d="M693.301 77.6204C690.608 79.7448 687.491 80.7383 683.947 80.6041C686.64 78.4797 689.757 77.4861 693.301 77.6204Z" fill="#F89C90"/>
<path fill-rule="evenodd" clip-rule="evenodd" d="M244.322 79.1116C241.629 81.236 238.512 82.2295 234.968 82.0953C237.66 79.9709 240.778 78.9773 244.322 79.1116Z" fill="#F8988B"/>
<path fill-rule="evenodd" clip-rule="evenodd" d="M587.738 82.0959C579.275 82.0959 570.811 82.0959 562.349 82.0959C562.76 85.7121 562.314 89.1925 561.013 92.5387C560.201 92.3537 559.756 91.857 559.676 91.0469C560.97 87.9036 561.416 84.4217 561.013 80.604C570.171 80.1207 579.08 80.6175 587.738 82.0959Z" fill="#C3D8FB"/>
<path fill-rule="evenodd" clip-rule="evenodd" d="M728.043 83.5869C729.66 84.2314 730.997 85.2264 732.052 86.5706C729.809 86.8913 728.472 85.8963 728.043 83.5869Z" fill="#FCA598"/>
<path fill-rule="evenodd" clip-rule="evenodd" d="M289.754 85.0791C291.371 85.7236 292.707 86.7186 293.763 88.0628C291.519 88.3835 290.183 87.3885 289.754 85.0791Z" fill="#FCA79B"/>
<path fill-rule="evenodd" clip-rule="evenodd" d="M226.95 86.571C226.318 88.6686 224.982 89.6636 222.941 89.5547C223.573 87.4572 224.91 86.4621 226.95 86.571Z" fill="#F8A399"/>
<path fill-rule="evenodd" clip-rule="evenodd" d="M671.921 86.571C671.289 88.6686 669.953 89.6636 667.913 89.5547C668.545 87.4572 669.881 86.4621 671.921 86.571Z" fill="#FAACA2"/>
<path fill-rule="evenodd" clip-rule="evenodd" d="M732.052 86.5713C734.364 87.356 736.147 88.8478 737.397 91.0468C734.548 90.9662 732.767 89.4744 732.052 86.5713Z" fill="#FDAC9F"/>
<path fill-rule="evenodd" clip-rule="evenodd" d="M293.763 88.0625C296.074 88.8472 297.857 90.339 299.108 92.538C296.259 92.4574 294.478 90.9656 293.763 88.0625Z" fill="#FCA69A"/>
<path fill-rule="evenodd" clip-rule="evenodd" d="M222.941 89.5547C221.056 93.156 218.383 95.6429 214.924 97.0139C216.809 93.4126 219.482 90.9257 222.941 89.5547Z" fill="#F68A7B"/>
<path fill-rule="evenodd" clip-rule="evenodd" d="M666.576 91.0464C663.904 95.0251 660.786 98.5056 657.223 101.489C659.004 96.5169 662.123 93.035 666.576 91.0464Z" fill="#FAAAA1"/>
<path fill-rule="evenodd" clip-rule="evenodd" d="M490.191 94.0308C488.41 97.0144 486.182 99.5013 483.51 101.49C484.401 97.5112 486.627 95.0258 490.191 94.0308Z" fill="#BED3FB"/>
<path fill-rule="evenodd" clip-rule="evenodd" d="M742.743 97.0142C745.097 98.1509 746.433 100.141 746.751 102.981C744.397 101.845 743.061 99.8546 742.743 97.0142Z" fill="#FBB1A9"/>
<path fill-rule="evenodd" clip-rule="evenodd" d="M210.915 101.489C211.013 103.767 210.121 105.259 208.243 105.965C208.145 103.687 209.036 102.195 210.915 101.489Z" fill="#FAA69A"/>
<path fill-rule="evenodd" clip-rule="evenodd" d="M307.125 101.489C309.004 102.195 309.895 103.687 309.797 105.965C307.919 105.259 307.027 103.767 307.125 101.489Z" fill="#F9A79E"/>
<path fill-rule="evenodd" clip-rule="evenodd" d="M706.664 104.473C710.018 103.808 712.69 104.801 714.681 107.457C711.744 106.897 709.071 105.902 706.664 104.473Z" fill="#FAA69B"/>
<path fill-rule="evenodd" clip-rule="evenodd" d="M746.751 102.981C748.63 103.687 749.521 105.179 749.424 107.457C747.545 106.751 746.654 105.259 746.751 102.981Z" fill="#F9ACA4"/>
<path fill-rule="evenodd" clip-rule="evenodd" d="M343.204 107.457C343.301 109.735 342.41 111.226 340.531 111.932C340.434 109.654 341.325 108.162 343.204 107.457Z" fill="#FFE8AB"/>
<path fill-rule="evenodd" clip-rule="evenodd" d="M447.431 107.457C449.31 108.162 450.201 109.654 450.104 111.932C448.225 111.226 447.333 109.735 447.431 107.457Z" fill="#FFE9AF"/>
<path fill-rule="evenodd" clip-rule="evenodd" d="M749.424 107.457C751.302 108.162 752.194 109.654 752.096 111.932C750.217 111.226 749.326 109.735 749.424 107.457Z" fill="#FBBFB8"/>
<path fill-rule="evenodd" clip-rule="evenodd" d="M276.391 110.44C278.432 110.331 279.768 111.326 280.4 113.423C278.359 113.532 277.023 112.537 276.391 110.44Z" fill="#FAB6AE"/>
<path fill-rule="evenodd" clip-rule="evenodd" d="M412.689 110.44C414.729 110.331 416.066 111.326 416.698 113.423C414.657 113.532 413.321 112.537 412.689 110.44Z" fill="#FFE6A5"/>
<path fill-rule="evenodd" clip-rule="evenodd" d="M205.57 110.44C205.667 112.718 204.776 114.21 202.897 114.915C202.8 112.637 203.691 111.146 205.57 110.44Z" fill="#FBBEB7"/>
<path fill-rule="evenodd" clip-rule="evenodd" d="M312.47 110.44C314.349 111.146 315.24 112.637 315.143 114.915C313.264 114.21 312.373 112.718 312.47 110.44Z" fill="#FBC0B9"/>
<path fill-rule="evenodd" clip-rule="evenodd" d="M647.869 119.392C647.989 123.348 647.099 126.828 645.196 129.834C645.076 125.878 645.966 122.398 647.869 119.392Z" fill="#F99F94"/>
<path fill-rule="evenodd" clip-rule="evenodd" d="M472.82 120.883C472.94 124.839 472.05 128.32 470.147 131.326C470.027 127.369 470.917 123.889 472.82 120.883Z" fill="#A6C1F9"/>
<path fill-rule="evenodd" clip-rule="evenodd" d="M98.6699 126.851C119.605 126.851 140.539 126.851 161.474 126.851C161.853 129.707 161.408 132.193 160.137 134.31C160.137 132.321 160.137 130.331 160.137 128.342C139.414 128.835 118.925 128.336 98.6699 126.851Z" fill="#6B9EF4"/>
<path fill-rule="evenodd" clip-rule="evenodd" d="M757.441 125.358C758.275 125.98 758.72 126.976 758.777 128.342C758.447 130.152 757.556 131.147 756.105 131.326C757.086 129.524 757.531 127.535 757.441 125.358Z" fill="#FDE4E1"/>
<path fill-rule="evenodd" clip-rule="evenodd" d="M671.921 134.31C671.527 137.644 671.974 140.627 673.258 143.261C673.177 144.071 672.733 144.567 671.921 144.752C670.188 141.063 670.188 137.581 671.921 134.31Z" fill="#F8B8B2"/>
<path fill-rule="evenodd" clip-rule="evenodd" d="M37.2025 144.752C39.0813 145.458 39.9726 146.95 39.875 149.228C37.9963 148.522 37.105 147.03 37.2025 144.752Z" fill="#C5D7FB"/>
<path fill-rule="evenodd" clip-rule="evenodd" d="M292.426 158.179C292.934 161.458 292.043 163.945 289.754 165.638C290.149 162.799 291.041 160.312 292.426 158.179Z" fill="#F9A59B"/>
<path fill-rule="evenodd" clip-rule="evenodd" d="M149.447 161.163C147.666 166.135 144.547 169.617 140.094 171.605C142.766 167.627 145.884 164.146 149.447 161.163Z" fill="#A8C2F9"/>
<path fill-rule="evenodd" clip-rule="evenodd" d="M228.287 167.13C230.165 167.836 231.057 169.327 230.959 171.605C229.08 170.9 228.189 169.408 228.287 167.13Z" fill="#FAB6AE"/>
<path fill-rule="evenodd" clip-rule="evenodd" d="M364.583 167.13C366.462 167.836 367.353 169.327 367.256 171.605C365.377 170.9 364.486 169.408 364.583 167.13Z" fill="#FFE8AD"/>
<path fill-rule="evenodd" clip-rule="evenodd" d="M500.881 168.622C502.76 169.327 503.651 170.819 503.554 173.097C501.675 172.391 500.784 170.9 500.881 168.622Z" fill="#B2CAFA"/>
<path fill-rule="evenodd" clip-rule="evenodd" d="M140.094 171.606C139.462 173.704 138.125 174.699 136.085 174.59C136.717 172.492 138.053 171.497 140.094 171.606Z" fill="#B8CEFB"/>
<path fill-rule="evenodd" clip-rule="evenodd" d="M230.959 171.605C234.076 174.092 236.749 177.076 238.976 180.556C234.968 179.065 232.295 176.081 230.959 171.605Z" fill="#FCBEB6"/>
<path fill-rule="evenodd" clip-rule="evenodd" d="M508.268 338.724C510.622 339.861 511.958 341.851 512.276 344.691C509.922 343.555 508.586 341.565 508.268 338.724Z" fill="#FFE4A1"/>
<path fill-rule="evenodd" clip-rule="evenodd" d="M678.603 173.098C681.72 175.585 684.393 178.568 686.62 182.049C682.611 180.557 679.939 177.573 678.603 173.098Z" fill="#FDBFB7"/>
<path fill-rule="evenodd" clip-rule="evenodd" d="M287.081 171.605C285.3 176.578 282.181 180.06 277.728 182.048C280.4 178.07 283.518 174.589 287.081 171.605Z" fill="#FBAFA6"/>
<path fill-rule="evenodd" clip-rule="evenodd" d="M204.233 182.048C206.834 182.846 208.17 184.835 208.242 188.016C206.273 186.619 204.936 184.629 204.233 182.048Z" fill="#FCAB9F"/>
<path fill-rule="evenodd" clip-rule="evenodd" d="M238.977 180.557C240.593 181.201 241.93 182.196 242.985 183.54C240.742 183.861 239.405 182.866 238.977 180.557Z" fill="#FCA497"/>
<path fill-rule="evenodd" clip-rule="evenodd" d="M726.707 180.557C726.075 182.654 724.739 183.649 722.699 183.541C723.331 181.443 724.667 180.448 726.707 180.557Z" fill="#FAB2AA"/>
<path fill-rule="evenodd" clip-rule="evenodd" d="M651.877 183.54C654.478 184.338 655.814 186.327 655.886 189.507C653.917 188.111 652.58 186.121 651.877 183.54Z" fill="#FDAEA2"/>
<path fill-rule="evenodd" clip-rule="evenodd" d="M29.1851 185.032C32.1903 185.897 34.4165 187.886 35.8663 190.999C32.8611 190.134 30.6349 188.145 29.1851 185.032Z" fill="#BBCFFB"/>
<path fill-rule="evenodd" clip-rule="evenodd" d="M658.559 193.983C661.564 194.849 663.79 196.837 665.24 199.951C662.235 199.085 660.008 197.097 658.559 193.983Z" fill="#FCBDB5"/>
<path fill-rule="evenodd" clip-rule="evenodd" d="M561.012 217.852C561.431 212.568 560.984 207.596 559.676 202.934C559.501 201.627 559.946 200.632 561.012 199.95C562.762 206.14 562.762 212.107 561.012 217.852Z" fill="#B1CCFA"/>
<path fill-rule="evenodd" clip-rule="evenodd" d="M491.527 201.443C493.568 201.334 494.904 202.329 495.536 204.426C493.496 204.535 492.159 203.54 491.527 201.443Z" fill="#B3CBFA"/>
<path fill-rule="evenodd" clip-rule="evenodd" d="M667.913 202.934C669.953 202.825 671.289 203.82 671.921 205.918C669.881 206.026 668.545 205.031 667.913 202.934Z" fill="#FBC3BD"/>
<path fill-rule="evenodd" clip-rule="evenodd" d="M372.602 211.885C376.145 211.751 379.263 212.744 381.955 214.869C378.412 215.003 375.294 214.009 372.602 211.885Z" fill="#FFDC86"/>
<path fill-rule="evenodd" clip-rule="evenodd" d="M507.562 211.885C511.106 211.751 514.224 212.744 516.916 214.869C513.373 215.003 510.255 214.009 507.562 211.885Z" fill="#9AB7F9"/>
<path fill-rule="evenodd" clip-rule="evenodd" d="M236.304 211.885C239.847 211.751 242.965 212.744 245.657 214.869C242.114 215.003 238.996 214.009 236.304 211.885Z" fill="#F8A59C"/>
<path fill-rule="evenodd" clip-rule="evenodd" d="M682.611 211.885C686.155 211.751 689.273 212.744 691.965 214.869C688.421 215.003 685.304 214.009 682.611 211.885Z" fill="#F9A79E"/>
<path fill-rule="evenodd" clip-rule="evenodd" d="M500.881 232.771C502.76 233.477 503.651 234.968 503.554 237.246C501.675 236.541 500.784 235.049 500.881 232.771Z" fill="#BBD1FB"/>
<path fill-rule="evenodd" clip-rule="evenodd" d="M475.492 235.754C475.047 236.749 474.601 237.743 474.156 238.738C472.476 237.063 472.921 236.069 475.492 235.754Z" fill="#DEE9FD"/>
<path fill-rule="evenodd" clip-rule="evenodd" d="M542.305 247.689C542.157 248.61 541.712 249.356 540.969 249.927C538.332 250.666 535.66 250.915 532.951 250.673C535.833 249.32 538.951 248.326 542.305 247.689Z" fill="#9BB7F8"/>
<path fill-rule="evenodd" clip-rule="evenodd" d="M486.183 259.624C488.727 259.979 490.509 261.47 491.528 264.099C488.983 263.744 487.201 262.252 486.183 259.624Z" fill="#C2D5FB"/>
<path fill-rule="evenodd" clip-rule="evenodd" d="M573.039 258.131C573.136 260.409 572.245 261.901 570.366 262.607C570.269 260.329 571.16 258.837 573.039 258.131Z" fill="#D9E5FC"/>
<path fill-rule="evenodd" clip-rule="evenodd" d="M507.562 274.542C511.106 274.408 514.224 275.401 516.916 277.525C513.373 277.66 510.255 276.666 507.562 274.542Z" fill="#AFC8FA"/>
</svg>
