<svg width="696" height="526" viewBox="0 0 696 526" fill="none" xmlns="http://www.w3.org/2000/svg">
<path opacity="0.999" fill-rule="evenodd" clip-rule="evenodd" d="M187.703 23.8461C194.402 23.6786 201.071 24.0645 207.713 25.0037C210.004 25.4053 212.179 26.177 214.238 27.3189C216.3 29.188 216.155 31.0402 213.803 32.8752C210.613 35.036 207.422 37.1968 204.233 39.3576C202.095 41.204 202.095 42.9018 204.233 44.4509C208.881 45.0007 213.521 45.618 218.153 46.303C221.347 47.0133 221.999 48.7881 220.11 51.6278C216.341 56.1025 212.426 60.424 208.365 64.5926C207.926 65.2987 207.709 66.0706 207.713 66.9078C208.768 66.8971 209.783 66.6656 210.758 66.2132C214.449 64.4801 218.074 62.628 221.633 60.6569C224.295 59.6623 225.89 60.5883 226.418 63.435C225.514 67.9774 224.644 72.5303 223.808 77.0944C223.842 77.9417 224.205 78.5589 224.895 78.9465C225.741 78.5117 226.466 77.894 227.07 77.0944C229.136 73.2017 231.673 69.729 234.683 66.6762C236.52 66.3118 237.462 67.161 237.51 69.2229C237.928 73.5342 238.218 77.8561 238.38 82.1877C238.383 83.4726 238.89 84.3986 239.903 84.9659C240.401 84.8186 240.764 84.5102 240.99 84.0398C242.15 79.7184 243.31 75.3965 244.47 71.075C245.366 68.0399 246.889 67.5768 249.038 69.6859C250.099 72.4872 251.549 75.0339 253.388 77.3259C254.016 77.6875 254.596 77.6102 255.128 77.0944C255.478 73.1035 255.695 69.0909 255.78 65.0556C256.348 63.7564 257.29 63.3702 258.608 63.8981C263.047 66.923 267.107 70.4731 270.788 74.5477C271.744 75.3335 272.759 76.028 273.833 76.6313C274.002 75.1186 273.785 73.5749 273.18 72.0011C270.69 67.1624 268.805 62.0691 267.525 56.7211C267.154 54.8111 267.299 52.959 267.96 51.1648C269.229 50.2883 270.607 50.0568 272.093 50.4703C277.193 52.6451 282.413 54.4199 287.753 55.7951C288.694 55.5645 289.419 55.0246 289.928 54.1745C289.303 52.459 288.506 50.8384 287.535 49.3127C283.63 45.3106 279.861 41.1433 276.225 36.8109C274.696 35.1556 274.405 33.3035 275.355 31.2546C285.464 25.3671 296.194 23.3606 307.545 25.2352C307.926 26.8174 307.418 27.975 306.023 28.7079C301.093 30.8687 296.162 33.0295 291.233 35.1903C290.4 35.8447 289.82 36.6936 289.493 37.737C290.158 39.7552 291.101 41.6073 292.32 43.2933C297.926 48.7265 303.146 54.5917 307.98 60.8884C309.793 63.1165 310.228 65.5858 309.285 68.2968C308.959 68.5867 308.596 68.8182 308.198 68.9914C306.023 69.3002 303.848 69.3002 301.673 68.9914C294.714 66.4707 287.681 64.2328 280.575 62.2775C279.544 62.4983 279.036 63.1929 279.053 64.3611C279.11 65.4043 279.327 66.4072 279.705 67.3708C282.17 73.5443 284.635 79.7184 287.1 85.8919C287.417 87.7607 287.779 89.6128 288.188 91.4482C288.12 93.4485 287.177 94.6834 285.36 95.1525C283.668 94.5223 282.001 93.8278 280.358 93.0688C275.428 88.7474 270.497 84.4255 265.568 80.1041C262.974 78.6877 261.452 79.5368 261 82.6507C260.467 85.5933 259.887 88.5256 259.26 91.4482C258.127 92.9642 256.895 93.1184 255.563 91.9113C253.496 89.3253 251.249 87.0101 248.82 84.9659C247.522 86.1757 246.652 87.719 246.21 89.5961C245.066 96.4772 243.18 103.114 240.555 109.506C238.96 111.976 237.365 111.976 235.77 109.506C235.215 108.48 234.78 107.399 234.465 106.265C233.5 100.262 232.63 94.2422 231.855 88.2071C230.975 86.6064 229.888 86.529 228.593 87.9755C226.267 90.838 223.512 93.1531 220.328 94.921C216.711 95.3178 214.971 93.5425 215.108 89.5961C215.604 85.6669 216.039 81.7311 216.413 77.7889C216.623 73.9745 215.029 72.8942 211.628 74.5477C204.713 78.7682 197.608 82.6266 190.313 86.1234C188.573 87.0564 186.905 86.9796 185.31 85.8919C184.791 83.211 185.37 80.7412 187.05 78.4835C192.386 71.7209 197.896 65.0844 203.58 58.5732C204.24 57.1675 204.893 55.7784 205.538 54.406C205.491 53.9698 205.346 53.5841 205.103 53.2484C204.523 53.0942 203.942 52.9396 203.363 52.7854C197.574 52.2714 191.774 51.9626 185.963 51.8593C181.459 51.7496 180.589 49.8975 183.353 46.303C186.861 43.6508 190.486 41.1814 194.228 38.8946C195.823 37.5055 197.417 36.1164 199.013 34.7273C198.555 34.0861 197.975 33.6231 197.273 33.3382C192.463 31.8656 187.678 30.3221 182.918 28.7079C181.715 27.3345 181.86 26.0997 183.353 25.0037C184.871 24.662 186.321 24.2762 187.703 23.8461Z" fill="#007DC1"/>
<path opacity="0.999" fill-rule="evenodd" clip-rule="evenodd" d="M385.628 23.846C387.7 23.8124 389.151 24.8157 389.978 26.8557C390.92 27.5503 391.862 28.2448 392.805 28.9393C395.936 27.8795 399.054 26.7219 402.158 25.4666C414.951 22.136 425.899 25.4544 435 35.4217C440.398 44.0494 441.991 53.4641 439.785 63.6665C433.758 80.7119 422.231 87.8888 405.203 85.1973C400.617 83.798 396.34 81.7144 392.37 78.9464C391.524 79.3812 390.799 79.9988 390.195 80.7985C389.541 82.8377 388.308 84.2268 386.498 84.9658C385.999 84.8185 385.636 84.5101 385.41 84.0397C385.263 81.7028 384.973 79.3876 384.54 77.0943C384.244 76.1622 383.664 75.545 382.8 75.2422C379.995 77.454 377.313 79.8465 374.753 82.4191C371.626 84.9579 370.538 84.2633 371.49 80.3355C373.763 76.7326 375.575 72.8742 376.928 68.7598C376.888 67.8684 376.453 67.3281 375.623 67.1392C373.883 66.8303 372.143 66.5219 370.403 66.2131C368.264 65.394 368.119 64.1591 369.968 62.5089C371.887 60.9855 373.844 59.5196 375.84 58.1101C377.357 56.3853 377.284 54.7647 375.623 53.2483C374.173 52.4765 372.722 51.705 371.273 50.9332C368.361 49.0806 368.506 47.3827 371.708 45.8399C372.976 45.1326 374.281 44.5152 375.623 43.9878C376.628 42.3722 376.556 40.7516 375.405 39.126C373.018 35.9687 370.988 32.5732 369.315 28.9393C369.1 28.1827 369.028 27.411 369.098 26.6242C369.837 26.55 370.562 26.6272 371.273 26.8557C375.282 29.0667 379.342 31.1503 383.453 33.1066C383.952 32.9594 384.314 32.6508 384.54 32.1805C384.825 29.3676 385.187 26.5894 385.628 23.846ZM405.638 31.2545C413.876 29.8236 420.618 32.4474 425.865 39.126C430.773 49.3172 430.773 59.5038 425.865 69.6858C418.086 78.932 409.023 80.5526 398.678 74.5476C397.26 73.6114 396.607 72.2996 396.72 70.6119C397.136 69.9664 397.716 69.6576 398.46 69.6858C401.215 70.8045 403.898 72.1163 406.508 73.6216C407.39 73.9369 408.26 74.0911 409.118 74.0846C409.382 73.5146 409.527 72.8974 409.553 72.2325C408.658 69.6076 408.078 66.9063 407.813 64.1295C411.642 64.0887 415.412 64.5518 419.123 65.5186C420.441 65.2815 420.949 64.5101 420.645 63.2034C420.21 62.4316 419.775 61.6602 419.34 60.8883C417.17 58.5018 414.923 56.1867 412.598 53.9429C415.521 52.0782 418.566 50.4577 421.733 49.0811C423.041 47.7202 422.897 46.64 421.298 45.8399C417.247 45.321 413.187 44.9351 409.118 44.6823C409.576 42.5575 410.373 40.551 411.51 38.6629C411.916 36.5407 411.119 35.8462 409.118 36.5793C406.314 37.5225 403.487 38.3714 400.635 39.126C397.858 38.2552 397.496 36.6346 399.548 34.2642C401.52 33.0291 403.55 32.0259 405.638 31.2545ZM390.413 40.9781C390.794 40.9175 391.084 41.0718 391.283 41.4411C392.042 43.8853 393.201 46.0461 394.763 47.9235C396.503 47.1516 398.243 46.3802 399.983 45.6084C400.127 45.7627 400.273 45.9171 400.418 46.0714C399.43 47.7124 398.56 49.4098 397.808 51.1647C397.952 51.4735 398.098 51.7819 398.243 52.0907C400.257 53.1122 402.287 54.0382 404.333 54.8689C402.345 55.5565 400.315 56.0969 398.243 56.4895C397.952 56.7984 397.663 57.1067 397.373 57.4156C398.298 59.1542 399.168 60.929 399.983 62.7404C399.765 62.8946 399.548 63.0492 399.33 63.2034C397.461 62.1778 395.503 61.6375 393.458 61.5828C392.08 63.3576 390.703 65.1329 389.325 66.9076C389.231 64.568 389.013 62.2528 388.673 59.9622C386.29 59.7099 383.97 59.3237 381.713 58.8047C383.746 57.2415 385.486 55.3894 386.933 53.2483C385.282 51.568 383.687 49.7932 382.148 47.9235C384.27 47.9119 386.445 47.8346 388.673 47.692C389.389 45.5009 389.969 43.2629 390.413 40.9781Z" fill="#007DC1"/>
<path opacity="0.999" fill-rule="evenodd" clip-rule="evenodd" d="M487.853 23.8462C492.085 24.4382 496.287 25.2099 500.468 26.1613C498.841 27.8136 497.466 29.6658 496.335 31.7177C496.044 33.5698 496.044 35.4219 496.335 37.274C498.284 42.7222 499.371 48.3557 499.598 54.1745C499.35 65.5192 494.417 73.5449 484.808 78.252C472.245 83.03 459.343 84.4191 446.093 82.4193C443.443 82.1711 440.833 81.708 438.263 81.0302C437.728 80.4824 437.728 79.9425 438.263 79.4096C440.968 77.9904 443.361 76.1383 445.44 73.8532C446.723 69.9652 446.797 66.0294 445.658 62.046C445.484 60.2221 446.21 59.6049 447.833 60.1939C450.778 64.1847 454.545 66.7314 459.143 67.8339C464.741 67.0319 466.555 63.7907 464.58 58.1103C463.884 56.8513 462.945 55.8479 461.753 55.1006C456.868 52.5442 451.791 50.5379 446.528 49.0812C444.461 48.2445 444.318 47.1643 446.093 45.84C451.256 44.3121 456.476 43.0774 461.753 42.1358C456.454 35.7656 449.786 31.907 441.743 30.5601C441.308 30.3286 440.873 30.0971 440.438 29.8656C439.994 29.6333 439.92 29.3246 440.22 28.9395C441.425 27.8925 442.804 27.198 444.353 26.8559C450.634 25.0841 457.011 24.4668 463.493 25.0038C467.477 25.1244 470.74 26.745 473.28 29.8656C473.711 30.9202 474.072 32.0006 474.368 33.1068C472.802 37.7652 472.006 42.5498 471.975 47.4606C472.275 48.6446 472.928 49.4938 473.933 50.0073C478.544 50.969 480.793 48.8854 480.675 43.7564C480.719 40.3531 480.501 36.9576 480.023 33.5698C480.327 28.094 482.937 24.8528 487.853 23.8462ZM487.418 29.4025C488.701 29.2742 489.932 29.4286 491.115 29.8656C492.533 34.6828 491.085 36.0718 486.765 34.0328C486.348 32.3434 486.565 30.7999 487.418 29.4025ZM486.983 48.8497C489.471 49.7267 490.993 51.5788 491.55 54.406C492.007 59.072 490.484 62.8535 486.983 65.7502C483.55 68.6145 479.635 70.1578 475.238 70.3805C472.484 70.7597 469.731 70.9139 466.973 70.8435C475.098 68.9738 481.262 64.2667 485.46 56.7212C486.387 54.1861 486.896 51.5621 486.983 48.8497Z" fill="#007DC1"/>
<path fill-rule="evenodd" clip-rule="evenodd" d="M226.418 24.7722C229.756 24.6951 233.091 24.7723 236.423 25.0037C238.722 26.3708 240.607 28.2229 242.078 30.56C244.725 32.1424 247.335 32.0652 249.908 30.3285C253.459 24.9774 258.244 23.2024 264.263 25.0037C265.789 25.0589 267.094 25.5991 268.178 26.6243C267.995 27.167 267.706 27.63 267.308 28.0134C265.722 28.6527 264.199 29.4244 262.74 30.3285C262.122 31.5 261.977 32.7347 262.305 34.0327C265.378 36.7108 268.641 39.1031 272.093 41.2097C273.506 43.0561 273.143 44.2136 271.005 44.6824C268.089 44.1379 265.19 43.5205 262.305 42.8303C261.491 43.0933 260.693 43.402 259.913 43.7563C259.408 45.5894 259.335 47.4415 259.695 49.3126C260.829 51.5722 261.844 53.8874 262.74 56.2581C263.537 59.1136 262.595 60.1165 259.913 59.2678C257.593 56.3354 255.272 53.4026 252.953 50.4702C249.99 48.9774 248.178 49.9808 247.515 53.4799C246.754 56.9123 245.884 60.3077 244.905 63.6665C243.975 64.2541 243.032 64.2541 242.078 63.6665C241.363 60.173 241.001 56.6234 240.99 53.0169C239.942 49.2575 237.84 48.4088 234.683 50.4702C232.363 52.3223 230.042 54.1744 227.723 56.0266C225.93 56.2646 225.278 55.4154 225.765 53.4799C227.627 50.417 229.657 47.4846 231.855 44.6824C232.62 42.0214 231.678 40.7866 229.028 40.9781C225.158 41.9739 221.243 42.3598 217.283 42.1357C216.401 41.4895 216.256 40.7177 216.848 39.8206C220.328 38.1228 223.808 36.425 227.288 34.7273C228.527 33.5422 228.89 32.0759 228.375 30.3285C226.843 29.2167 225.175 28.3678 223.373 27.7818C223.146 27.5219 223.001 27.2132 222.938 26.8558C223.934 25.7868 225.094 25.0923 226.418 24.7722Z" fill="#007DC1"/>
<path fill-rule="evenodd" clip-rule="evenodd" d="M305.152 36.8105C306.62 36.8913 308.07 37.1228 309.502 37.5051C310.025 37.923 310.388 38.4632 310.59 39.1257C310.933 41.7819 310.788 44.4058 310.155 46.9972C308.06 48.1362 305.957 48.0589 303.847 46.7657C293.663 41.4471 294.098 38.1287 305.152 36.8105Z" fill="#007DC1"/>
<path opacity="0.999" fill-rule="evenodd" clip-rule="evenodd" d="M190.312 56.7212C192.386 56.5781 194.416 56.8096 196.402 57.4157C197.476 58.151 197.548 59.0002 196.62 59.9624C193.633 64.4403 189.79 67.7588 185.092 69.9175C182.977 70.1365 181.963 69.0562 182.047 66.6763C182.309 60.9231 185.064 57.6051 190.312 56.7212Z" fill="#007DC1"/>
<path fill-rule="evenodd" clip-rule="evenodd" d="M287.752 71.0747C288.808 71.0854 289.823 71.3169 290.797 71.7692C297.601 76.2305 303.909 81.4012 309.72 87.2807C310.669 90.5733 310.524 93.8145 309.285 97.0043C308.013 99.1166 306.345 99.657 304.282 98.6249C296.893 91.0687 291.238 82.2712 287.317 72.2323C287.423 71.8146 287.568 71.4289 287.752 71.0747Z" fill="#007DC1"/>
<path fill-rule="evenodd" clip-rule="evenodd" d="M201.623 86.355C208.308 86.7851 212.295 90.4894 213.585 97.4677C214.546 101.795 214.329 106.039 212.933 110.201C205.952 110.759 200.224 108.213 195.75 102.561C194.194 98.7387 194.049 94.8798 195.315 90.9853C196.898 88.5997 199.001 87.056 201.623 86.355Z" fill="#007DC1"/>
<path fill-rule="evenodd" clip-rule="evenodd" d="M480.022 86.8178C485.238 85.8093 487.196 87.9703 485.895 93.3002C480.605 99.2413 474.15 101.788 466.537 100.94C465.846 100.456 465.193 99.9155 464.58 99.3196C463.893 97.1966 463.31 95.0356 462.84 92.8372C462.548 91.9033 462.039 91.1318 461.317 90.522C467.908 91.2768 474.141 90.0419 480.022 86.8178Z" fill="#007DC1"/>
<path opacity="0.997" fill-rule="evenodd" clip-rule="evenodd" d="M490.027 86.355C496.017 87.8256 498.41 91.8382 497.205 98.3937C494.316 106.713 488.879 112.192 480.892 114.831C476.899 116.365 472.836 116.673 468.712 115.757C464.006 114.113 463.136 111.181 466.102 106.96C466.681 106.651 467.264 106.343 467.842 106.034C476.173 106.272 483.202 103.262 488.94 97.0046C491.615 93.6699 491.98 90.1203 490.027 86.355Z" fill="#007DC1"/>
<path fill-rule="evenodd" clip-rule="evenodd" d="M385.628 88.2071C390.93 87.8654 395.642 89.4087 399.765 92.8374C400.83 92.3091 401.918 91.846 403.028 91.4483C403.865 91.49 404.373 91.953 404.55 92.8374C405 99.2568 403.55 105.122 400.2 110.432C399.169 111.685 398.009 112.766 396.72 113.674C395.995 112.439 395.27 111.204 394.545 109.969C392.826 108.71 391.158 107.398 389.543 106.034C388.991 103.63 389.716 101.778 391.718 100.477C384.755 96.6564 379.463 98.4312 375.84 105.802C373.4 96.3328 376.663 90.4676 385.628 88.2071Z" fill="#007DC1"/>
<path opacity="0.999" fill-rule="evenodd" clip-rule="evenodd" d="M432.173 89.1328C433.228 89.1435 434.243 89.375 435.218 89.8274C436.231 91.2164 437.249 92.6055 438.263 93.9946C438.915 94.2261 439.568 94.4576 440.22 94.6891C443.343 94.0446 446.388 93.1186 449.355 91.911C451.147 92.424 452.596 93.5043 453.705 95.1522C456.628 99.7084 458.442 104.724 459.143 110.201C458.416 114.219 456.241 116.997 452.618 118.535C439.781 124.116 428.252 122.033 418.035 112.284C416.27 109.942 414.675 107.472 413.25 104.876C412.052 101.74 411.472 98.4989 411.51 95.1522C411.728 94.9207 411.945 94.6891 412.163 94.4576C419.301 94.4072 425.971 92.6324 432.173 89.1328ZM424.343 102.561C428.543 103.533 432.748 104.535 436.958 105.57C440.933 106.038 444.848 106.655 448.703 107.422C446.98 109.117 444.949 110.197 442.613 110.664C437.388 111.511 432.458 110.585 427.823 107.885C426.047 106.54 424.887 104.766 424.343 102.561Z" fill="#007DC1"/>
<path opacity="0.998" fill-rule="evenodd" clip-rule="evenodd" d="M262.523 94.2264C272.658 92.1701 279.256 96.3373 282.315 106.728C282.716 109.958 283.006 113.199 283.185 116.452C286.682 110.027 291.83 106.014 298.628 104.413C301.297 104.562 303.689 105.488 305.805 107.191C309.433 110.901 311.101 115.454 310.808 120.85C310.773 123.825 310.265 126.68 309.285 129.417C307.648 130.788 306.633 130.324 306.24 128.027C306.196 125.506 305.906 123.036 305.37 120.619C303.898 120.147 302.883 120.765 302.325 122.471C301.281 126.255 300.991 130.114 301.455 134.047C302.743 136.7 304.41 137.009 306.458 134.973C306.741 138.301 305.725 141.156 303.413 143.539C298.234 147.513 293.014 147.513 287.753 143.539C286.064 141.588 284.541 139.504 283.185 137.288C281.649 133.556 280.489 129.698 279.705 125.712C273.68 133.318 265.996 137.485 256.65 138.214C247.372 137.445 242.225 132.121 241.208 122.24C241.309 119.289 242.179 116.665 243.818 114.368C244.662 114.024 245.459 114.101 246.21 114.6C246.935 117.372 247.66 120.15 248.385 122.934C250.808 125.324 253.128 125.17 255.345 122.471C257.776 118.178 258.646 113.548 257.955 108.58C256.724 106.155 254.911 105.615 252.518 106.96C251.537 107.597 250.595 108.292 249.69 109.043C251.591 101.846 255.868 96.9078 262.523 94.2264ZM269.048 100.709C270.454 100.587 271.035 101.282 270.788 102.792C269.928 111.931 267.681 120.651 264.045 128.953C263.22 129.655 262.277 129.964 261.218 129.88C261.146 128.175 261.218 126.477 261.435 124.786C262.45 120.156 263.465 115.526 264.48 110.895C265.66 107.305 267.182 103.909 269.048 100.709ZM275.573 109.969C276.787 109.947 277.584 110.564 277.965 111.821C279.993 118.252 278.18 122.882 272.528 125.712C271.447 124.976 271.012 123.895 271.223 122.471C271.484 117.77 272.934 113.603 275.573 109.969ZM297.323 113.674C297.756 113.66 298.046 113.891 298.193 114.368C298.695 121.726 297.463 128.748 294.495 135.436C293.919 136.706 292.976 137.324 291.668 137.288C290.901 128.665 292.786 120.793 297.323 113.674ZM287.318 118.304C287.753 118.304 288.188 118.304 288.623 118.304C288.92 121.847 288.412 125.242 287.1 128.49C286.493 129.429 285.768 129.583 284.925 128.953C283.965 126.652 283.82 124.337 284.49 122.008C285.374 120.686 286.316 119.451 287.318 118.304Z" fill="#007DC1"/>
<path opacity="0.997" fill-rule="evenodd" clip-rule="evenodd" d="M187.702 95.1523C188.475 97.5934 188.983 100.217 189.225 103.024C191.002 108.232 194.409 111.628 199.447 113.21C193.734 117.826 188.296 117.517 183.135 112.284C180.724 108.363 180.579 104.351 182.7 100.246C184.322 98.4408 185.989 96.7428 187.702 95.1523Z" fill="#007DC1"/>
<path opacity="0.999" fill-rule="evenodd" clip-rule="evenodd" d="M496.552 107.191C498.114 107.211 499.201 107.983 499.815 109.506C500.65 113.071 501.011 116.698 500.902 120.387C500.807 128.061 500.302 135.701 499.38 143.307C499.054 145.622 498.327 147.783 497.205 149.79C496.787 150.435 496.209 150.744 495.465 150.716C493.064 149.861 490.815 148.704 488.722 147.243C483.072 142.156 478.213 136.368 474.15 129.879C473.084 127.147 472.14 124.368 471.322 121.545C481.388 121.661 489.584 117.647 495.9 109.506C496.339 108.8 496.557 108.028 496.552 107.191Z" fill="#007DC1"/>
<path opacity="0.99" fill-rule="evenodd" clip-rule="evenodd" d="M222.938 108.117C226.889 107.386 229.354 109.084 230.333 113.211C229.484 117.892 226.874 119.667 222.503 118.535C218.372 114.832 218.517 111.359 222.938 108.117Z" fill="#007CC1"/>
<path fill-rule="evenodd" clip-rule="evenodd" d="M405.202 105.339C405.714 105.237 406.149 105.392 406.507 105.802C409.171 113.03 408.664 119.975 404.985 126.638C399.835 132.89 393.383 135.282 385.627 133.815C383.494 133.701 381.464 133.161 379.537 132.194C378.872 132.208 378.365 132.517 378.015 133.12C377.59 134.325 377.082 135.483 376.492 136.593C375.44 136.911 374.497 136.68 373.665 135.899C372.768 134.787 372.043 133.552 371.49 132.194C369.072 124.602 369.579 117.271 373.012 110.201C374.215 110.534 375.231 111.306 376.057 112.516C376.83 113.182 377.7 113.645 378.667 113.905C381.857 114.544 385.047 114.775 388.237 114.599C389.237 117.054 388.657 119.138 386.497 120.85C392.562 122.819 397.855 121.352 402.375 116.451C404.537 113.113 405.48 109.408 405.202 105.339Z" fill="#007DC1"/>
<path opacity="0.999" fill-rule="evenodd" clip-rule="evenodd" d="M205.973 116.914C208.587 116.838 211.197 116.915 213.803 117.146C215.016 117.258 216.176 117.566 217.283 118.072C217.809 121.588 219.476 124.289 222.285 126.175C222.823 128.328 222.678 130.489 221.85 132.657C217.232 144.517 208.895 150.15 196.838 149.558C193.141 148.439 189.371 147.822 185.528 147.706C184.617 147.125 184.182 146.276 184.223 145.159C185.143 142.475 185.65 139.697 185.745 136.825C188.384 125.449 195.126 118.812 205.973 116.914ZM207.713 122.008C211.056 121.782 212.868 123.48 213.15 127.101C214.299 128.324 215.458 129.558 216.63 130.805C216.552 134.44 214.885 135.597 211.628 134.278C210.558 133.603 209.615 132.754 208.8 131.731C207.693 129.453 206.896 127.061 206.408 124.554C206.457 123.444 206.892 122.595 207.713 122.008ZM196.838 127.564C197.78 130.324 198.867 133.102 200.1 135.899C201.782 137.911 203.74 139.532 205.973 140.76C206.552 141.223 206.552 141.686 205.973 142.15C203.653 143.693 201.332 143.693 199.013 142.15C194.436 138.789 193.203 134.39 195.315 128.953C195.813 128.427 196.321 127.964 196.838 127.564Z" fill="#007DC1"/>
<path fill-rule="evenodd" clip-rule="evenodd" d="M229.463 119.693C234.595 119.213 236.843 121.683 236.205 127.101C234.297 130.762 231.614 131.612 228.158 129.648C225.126 125.821 225.561 122.503 229.463 119.693Z" fill="#007DC1"/>
<path opacity="0.999" fill-rule="evenodd" clip-rule="evenodd" d="M413.033 124.323C417.93 124.058 420.033 126.527 419.34 131.731C416.49 135.794 413.445 135.948 410.205 132.194C409.048 128.711 409.991 126.087 413.033 124.323Z" fill="#007DC1"/>
<path opacity="0.998" fill-rule="evenodd" clip-rule="evenodd" d="M424.343 125.249C429.26 128.565 434.625 129.722 440.438 128.722C448.185 126.744 455.723 127.361 463.058 130.574C465.989 132.458 468.673 134.697 471.105 137.288C475.12 142.287 478.818 147.535 482.198 153.031C489.649 156.256 495.23 161.658 498.945 169.237C501.881 176.945 501.303 184.354 497.205 191.462C493.869 196.401 490.536 201.34 487.2 206.279C485.33 209.494 483.807 212.89 482.633 216.466C482.776 216.774 482.924 217.083 483.068 217.392C483.994 216.944 484.864 216.404 485.678 215.771C488.305 212.203 491.35 209.116 494.813 206.51C499.624 205.611 501.799 207.771 501.338 212.993C501.059 220.685 498.306 227.168 493.073 232.44C492.659 232.664 492.224 232.741 491.768 232.672C491.841 230.505 491.768 228.345 491.55 226.189C489.767 222.058 486.939 221.054 483.068 223.179C479.979 226.398 477.656 230.18 476.108 234.524C475.751 234.934 475.316 235.088 474.803 234.987C472.767 225.101 469.069 215.994 463.71 207.668C460.252 203.213 455.976 200.049 450.878 198.176C445.501 197.386 440.646 195.302 436.305 191.925C434.992 189.816 434.339 187.501 434.348 184.98C435.104 180.591 435.831 176.192 436.523 171.783C436.34 170.504 436.053 169.269 435.653 168.079C437.14 168.246 438.593 168.709 440.003 169.468C441.09 170.626 442.178 171.783 443.265 172.941C445.27 178.107 447.445 183.2 449.79 188.221C451.313 189.841 452.835 191.462 454.358 193.083C464.158 200.125 471.044 209.617 475.02 221.559C475.168 215.243 473.719 209.378 470.67 203.964C464.663 194.479 457.994 185.527 450.66 177.108C450.095 175.978 449.586 174.821 449.138 173.635C458.094 172.785 464.402 176.875 468.06 185.906C469.1 188.892 470.261 191.824 471.54 194.703C473.924 201.465 476.173 208.257 478.283 215.076C480.84 209.862 483.45 204.691 486.113 199.565C481.519 197.309 477.386 194.299 473.715 190.536C471.07 185.695 471.214 180.911 474.15 176.182C476.621 172.933 479.592 170.386 483.068 168.542C485.195 167.729 486.352 168.501 486.548 170.857C485.734 176.265 484.864 181.666 483.938 187.063C484.016 189.857 485.034 192.172 486.983 194.009C488.975 194.22 490.497 193.372 491.55 191.462C497.744 181.664 496.944 172.635 489.158 164.375C486.104 162.209 482.767 161.283 479.153 161.597C469.891 166.403 460.178 167.947 450.008 166.227C439.124 163.133 431.656 155.956 427.605 144.696C425.592 138.384 424.505 131.901 424.343 125.249ZM453.053 135.436C453.488 135.396 453.849 135.55 454.14 135.899C455.584 140.14 457.829 143.767 460.883 146.78C461.835 147.386 462.775 147.463 463.71 147.011C464.532 145.108 464.967 143.102 465.015 140.992C465.333 140.224 465.837 139.993 466.538 140.297C467.39 142.813 468.186 145.36 468.93 147.937C470.431 149.812 472.171 151.355 474.15 152.568C474.363 153.166 474.437 153.784 474.368 154.42C471.623 153.991 468.869 153.913 466.103 154.188C463.971 156.383 461.648 158.312 459.143 159.976C458.612 159.797 458.32 159.411 458.273 158.819C458.49 158.124 458.708 157.429 458.925 156.735C460.239 155.103 461.474 153.405 462.623 151.642C462.27 151.033 461.835 150.493 461.318 150.021C460.013 149.712 458.708 149.712 457.403 150.021C453.849 152.261 450.151 154.19 446.31 155.809C445.701 155.805 445.192 155.573 444.788 155.114C446.084 153.603 447.463 152.137 448.92 150.716C449.855 149.607 449.781 148.603 448.703 147.706C447.746 147.233 446.728 147.001 445.658 147.011C442.791 147.353 439.963 147.816 437.175 148.4C436.583 147.993 435.931 147.838 435.218 147.937C435.126 147.176 435.27 146.482 435.653 145.854C437.684 145.391 439.711 144.928 441.743 144.465C442.743 143.88 443.104 143.031 442.83 141.918C441.864 140.4 441.064 138.779 440.438 137.056C440.881 135.669 441.603 135.515 442.613 136.593C443.213 137.386 443.935 138.004 444.788 138.445C445.801 141.61 447.833 143.539 450.878 144.233C451.543 144.22 452.052 143.911 452.4 143.307C452.552 142.512 452.77 141.74 453.053 140.992C452.474 139.126 452.474 137.274 453.053 135.436Z" fill="#007DC1"/>
<path opacity="0.999" fill-rule="evenodd" clip-rule="evenodd" d="M406.508 137.288C413.767 136.758 417.174 140.308 416.73 147.938C415.016 153.032 411.608 155.116 406.508 154.189C401.276 152.08 399.464 148.145 401.07 142.381C402.248 139.871 404.061 138.174 406.508 137.288Z" fill="#007CC1"/>
<path fill-rule="evenodd" clip-rule="evenodd" d="M392.152 136.825C396.972 137.941 398.349 140.873 396.285 145.622C393.675 148.709 391.065 148.709 388.455 145.622C386.381 141.087 387.614 138.154 392.152 136.825Z" fill="#007DC1"/>
<path opacity="0.999" fill-rule="evenodd" clip-rule="evenodd" d="M225.548 138.214C233.766 140.66 238.551 146.371 239.903 155.346C238.889 165.474 233.959 168.793 225.113 165.301C220.255 160.757 218.733 155.124 220.545 148.4C221.657 144.642 223.325 141.246 225.548 138.214Z" fill="#007DC1"/>
<path opacity="0.998" fill-rule="evenodd" clip-rule="evenodd" d="M279.487 194.24C281.624 185.554 279.594 178.223 273.397 172.246C272.962 172.015 272.527 171.783 272.092 171.552C269.88 175.336 268.14 179.349 266.872 183.591C267.123 184.54 267.703 185.003 268.612 184.98C268.429 189.469 268.211 193.945 267.96 198.408C268.237 199.717 268.962 200.643 270.135 201.186C270.755 204.726 271.335 208.276 271.875 211.835C272.282 212.858 273.007 213.475 274.05 213.687C275.56 217.529 277.517 221.079 279.922 224.337C278.653 228.251 276.188 229.717 272.527 228.736C270.927 225.954 268.897 223.638 266.437 221.79C264.416 220.339 263.835 218.41 264.697 216.003C264.041 213.217 262.809 210.748 261 208.594C259.323 205.687 259.105 202.678 260.347 199.565C259.196 194.887 258.181 190.179 257.302 185.443C257.924 185.479 258.505 185.325 259.042 184.98C259.635 181.912 260.143 178.825 260.565 175.719C261.26 173.389 262.348 171.306 263.827 169.468C254.846 168.697 247.233 171.861 240.99 178.96C240.133 180.566 239.191 182.109 238.162 183.591C236.298 175.729 238.328 169.169 244.252 163.912C246.937 162.569 249.764 161.874 252.735 161.828C256.705 162.067 260.62 162.684 264.48 163.68C264.697 163.526 264.915 163.372 265.132 163.217C260.839 157.229 255.184 154.219 248.167 154.188C246.683 154.687 245.595 155.69 244.905 157.198C244.533 153.618 244.677 150.068 245.34 146.548C247.554 142.417 250.817 141.105 255.127 142.613C261.801 146.167 266.514 151.646 269.265 159.05C269.617 155.197 269.907 151.338 270.135 147.474C270.303 144.413 271.535 142.021 273.832 140.297C275.196 139.932 276.501 140.086 277.747 140.76C281.578 143.424 284.333 147.051 286.012 151.642C282.899 151.563 280.361 152.798 278.4 155.346C277.568 157.272 276.626 159.124 275.572 160.902C275.717 161.056 275.863 161.211 276.007 161.365C280.18 158.604 284.53 156.212 289.057 154.188C294.024 152.894 298.809 153.357 303.412 155.577C306.685 158.609 307.918 162.39 307.11 166.922C306.324 168.892 305.671 170.899 305.152 172.941C304.717 172.941 304.282 172.941 303.847 172.941C303.203 168.166 300.593 165.464 296.017 164.838C289.812 163.986 283.722 164.603 277.747 166.69C280.669 167.367 283.569 168.138 286.447 169.005C292.681 172.816 294.348 178.295 291.45 185.443C288.25 189.578 284.263 192.51 279.487 194.24Z" fill="#007DC1"/>
<path fill-rule="evenodd" clip-rule="evenodd" d="M378.667 143.77C383.786 143.277 386.034 145.746 385.41 151.179C383.279 154.967 380.451 155.662 376.927 153.262C375.262 150.648 375.19 147.947 376.71 145.159C377.428 144.743 378.081 144.28 378.667 143.77Z" fill="#007DC1"/>
<path fill-rule="evenodd" clip-rule="evenodd" d="M215.107 148.864C215.385 149.14 215.53 149.526 215.542 150.021C213.854 156.451 215.159 162.085 219.457 166.922C219.074 167.603 218.494 167.989 217.717 168.079C209.989 169.726 206.291 166.407 206.625 158.124C208.083 153.564 210.91 150.476 215.107 148.864Z" fill="#007DC1"/>
<path opacity="0.997" fill-rule="evenodd" clip-rule="evenodd" d="M420.428 151.179C425.785 150.785 428.033 153.409 427.17 159.05C425.191 162.898 422.364 163.747 418.688 161.597C416.694 158.899 416.477 156.044 418.035 153.031C418.823 152.347 419.621 151.73 420.428 151.179Z" fill="#007DC1"/>
<path fill-rule="evenodd" clip-rule="evenodd" d="M392.152 151.179C398.014 150.632 401.494 153.41 402.592 159.513C401.55 165.491 398.215 168.191 392.587 167.616C387.282 165.197 385.614 161.107 387.585 155.346C388.935 153.673 390.457 152.284 392.152 151.179Z" fill="#007CC1"/>
<path opacity="0.996" fill-rule="evenodd" clip-rule="evenodd" d="M185.093 151.179C187.218 153.624 189.828 155.245 192.923 156.041C196.116 156.729 199.306 156.961 202.493 156.735C200.495 159.092 198.175 161.021 195.533 162.523C191.153 164.212 187.89 162.9 185.745 158.587C185.192 156.154 184.975 153.685 185.093 151.179Z" fill="#007DC1"/>
<path opacity="0.999" fill-rule="evenodd" clip-rule="evenodd" d="M376.492 159.976C383.736 159.89 386.564 163.595 384.975 171.089C381.664 176.345 377.677 176.963 373.012 172.941C372.42 172.233 371.913 171.461 371.49 170.626C370.408 165.546 372.075 161.996 376.492 159.976Z" fill="#007DC1"/>
<path fill-rule="evenodd" clip-rule="evenodd" d="M407.812 160.439C412.227 160.43 414.33 162.745 414.12 167.385C412.379 171.729 409.552 172.732 405.637 170.395C402.789 166.161 403.514 162.843 407.812 160.439Z" fill="#007CC1"/>
<path fill-rule="evenodd" clip-rule="evenodd" d="M180.743 162.754C182.251 164.44 183.701 166.215 185.093 168.079C187.436 169.579 189.974 170.429 192.705 170.626C196.562 170.019 200.405 169.479 204.233 169.005C200.446 172.881 196.096 175.814 191.183 177.803C185.138 178.631 181.73 175.775 180.96 169.237C180.743 167.081 180.67 164.921 180.743 162.754Z" fill="#007DC1"/>
<path opacity="0.998" fill-rule="evenodd" clip-rule="evenodd" d="M422.168 166.922C428.607 167.679 430.565 171.229 428.04 177.572C424.08 180.96 420.6 180.497 417.6 176.182C416.291 171.404 417.813 168.317 422.168 166.922Z" fill="#007DC1"/>
<path opacity="0.992" fill-rule="evenodd" clip-rule="evenodd" d="M391.283 171.089C396.154 170.949 398.402 173.418 398.025 178.498C396.647 181.585 394.399 182.743 391.283 181.97C386.661 178.344 386.661 174.717 391.283 171.089Z" fill="#007DC1"/>
<path opacity="0.998" fill-rule="evenodd" clip-rule="evenodd" d="M216.847 173.867C219.506 173.55 220.811 174.862 220.762 177.803C218.973 186.555 216.58 195.121 213.585 203.501C213.367 204.658 213.15 205.816 212.932 206.974C212.936 207.624 213.154 208.164 213.585 208.594C214.582 207.997 215.452 207.225 216.195 206.279C217.61 204.041 218.915 201.726 220.11 199.334C222.139 194.091 224.169 188.844 226.2 183.591C227.071 182.022 228.303 181.328 229.897 181.507C231.247 182.881 231.827 184.579 231.637 186.6C231.5 188.878 231.137 191.117 230.55 193.314C226.073 207.472 220.418 221.055 213.585 234.061C211.89 238.287 210.44 242.609 209.235 247.026C208.866 249.729 209.155 252.353 210.105 254.897C211.613 257.028 212.99 259.189 214.237 261.379C208.117 261.787 203.404 259.318 200.1 253.971C197.188 259.939 197.042 265.958 199.665 272.029C203.622 276.452 207.682 280.774 211.845 284.994C215.392 290.674 215.609 296.539 212.497 302.589C212.121 303.09 211.686 303.167 211.192 302.82C208.224 300.392 205.179 298.077 202.057 295.875C190.821 284.392 187.703 270.733 192.705 254.897C193.926 251.772 195.231 248.685 196.62 245.636C200.692 239.599 204.607 233.425 208.365 227.115C210.05 222.461 208.89 218.911 204.885 216.466C201.088 209.904 198.26 210.289 196.402 217.623C196.807 220.259 197.75 222.651 199.23 224.8C199.481 226.832 199.336 228.838 198.795 230.82C197.116 234.791 194.579 237.954 191.182 240.312C189.725 240.742 188.493 240.357 187.485 239.154C185.931 236.456 184.916 233.523 184.44 230.357C182.197 217.143 182.632 204.024 185.745 190.999C186.351 189.246 187.076 187.549 187.92 185.906C189.097 184.295 190.402 184.141 191.835 185.443C191.646 190.837 191.646 196.239 191.835 201.649C192.021 203.243 192.818 203.937 194.227 203.732C194.962 202.548 195.47 201.236 195.75 199.797C196.849 193.419 198.154 187.091 199.665 180.813C200.418 178.699 201.795 177.31 203.797 176.645C204.497 176.709 205.077 177.018 205.537 177.571C205.929 178.697 206.219 179.855 206.407 181.044C205.287 187.588 204.272 194.148 203.362 200.723C203.383 202.033 203.818 203.113 204.667 203.964C205.093 203.743 205.455 203.435 205.755 203.038C206.25 201.61 206.83 200.221 207.495 198.871C209.179 192.257 211.209 185.774 213.585 179.423C214.426 177.378 215.513 175.526 216.847 173.867Z" fill="#007DC1"/>
<path fill-rule="evenodd" clip-rule="evenodd" d="M406.073 175.256C410.57 174.833 413.977 176.685 416.295 180.813C418.069 188.466 415.314 192.788 408.03 193.777C402.673 193.477 399.7 190.468 399.113 184.748C399.583 180.008 401.903 176.844 406.073 175.256Z" fill="#007DC1"/>
<path opacity="0.999" fill-rule="evenodd" clip-rule="evenodd" d="M299.062 178.497C299.089 178.246 299.233 178.092 299.497 178.034C303.505 180.216 306.767 183.302 309.285 187.295C311.41 192.154 311.265 196.938 308.85 201.649C305.824 204.858 303.576 208.563 302.107 212.761C302.222 213.932 302.584 215.012 303.195 216.002C305.239 218.333 307.414 220.494 309.72 222.485C311.655 225.329 312.09 228.416 311.025 231.745C308.399 236.559 305.935 241.498 303.63 246.562C301.472 253.565 303.285 259.044 309.067 263C310.652 263.588 312.246 264.128 313.852 264.62C301.221 267.431 291.289 263.11 284.055 251.656C280.242 241.973 281.62 233.253 288.187 225.495C290.535 227.338 293.145 228.881 296.017 230.125C297.503 230.538 298.881 230.307 300.15 229.43C300.478 228.043 300.116 226.885 299.062 225.958C295.889 223.798 292.699 221.638 289.492 219.475C287.705 218.175 286.037 216.709 284.49 215.076C281.914 211.538 281.624 207.834 283.62 203.964C287.78 200.323 292.058 196.85 296.452 193.546C301.214 189.265 302.084 184.249 299.062 178.497Z" fill="#007DC1"/>
<path opacity="0.998" fill-rule="evenodd" clip-rule="evenodd" d="M250.778 178.497C251.159 178.437 251.449 178.591 251.648 178.96C249.61 183.47 248.595 188.254 248.603 193.314C248.691 197.581 249.343 201.749 250.56 205.816C255.489 216.317 261.289 226.195 267.96 235.45C269.875 238.884 271.615 242.434 273.18 246.099C275.121 253.817 272.728 259.296 266.003 262.537C260.35 264.088 256.217 262.158 253.605 256.749C252.102 252.604 252.972 249.209 256.215 246.562C256.528 248.693 257.471 250.468 259.043 251.887C263.684 252.657 265.496 250.573 264.48 245.636C264.124 243.487 263.399 241.481 262.305 239.617C256.969 230.885 252.184 221.778 247.95 212.298C245.959 206.444 244.581 200.425 243.818 194.24C242.18 198.705 241.672 203.335 242.295 208.131C244.469 217.387 247.079 226.493 250.125 235.45C250.415 238.691 250.415 241.932 250.125 245.173C247.295 250.883 243.163 252.349 237.728 249.572C234.828 246.498 234.466 243.18 236.64 239.617C237.436 242.237 239.103 243.086 241.643 242.164C243.132 240.311 243.712 238.15 243.383 235.681C243.369 233.572 243.151 231.488 242.73 229.43C241.135 223.411 239.54 217.392 237.945 211.372C238.247 199.867 237.377 199.713 235.335 210.909C235.19 218.163 235.045 225.417 234.9 232.672C233.695 241.067 229.272 244.231 221.633 242.164C217.947 239.21 217.295 235.738 219.675 231.745C220.941 233.175 222.464 234.101 224.243 234.524C227.486 234.077 229.154 232.07 229.245 228.504C229.68 222.957 229.97 217.401 230.115 211.835C231.593 202.052 235.508 193.563 241.86 186.369C244.915 183.808 247.888 181.184 250.778 178.497Z" fill="#007DC1"/>
<path opacity="0.999" fill-rule="evenodd" clip-rule="evenodd" d="M374.753 179.886C375.021 179.938 375.238 180.092 375.405 180.349C375.313 182.326 375.965 183.947 377.363 185.211C379.665 187.214 382.275 188.603 385.193 189.378C388.897 191.471 390.782 194.789 390.848 199.333C390.57 201.882 390.281 204.429 389.978 206.973C390.141 208.621 390.576 210.164 391.283 211.604C392.182 211.922 393.052 211.844 393.893 211.372C394.254 207.368 394.472 203.355 394.545 199.333C395.089 197.999 396.031 197.151 397.373 196.787C401.672 196.868 405.732 198.103 409.553 200.491C411.266 201.026 413.006 201.412 414.773 201.649C414.077 204.169 412.628 206.098 410.423 207.436C406.443 208.629 402.673 210.327 399.113 212.53C396.301 215.479 396.301 218.411 399.113 221.327C401.479 222.425 403.944 222.733 406.508 222.253C406.881 221.526 407.171 220.754 407.378 219.938C406.927 218.493 406.854 217.027 407.16 215.539C407.911 215.041 408.708 214.964 409.553 215.308C414.596 218.049 419.018 221.676 422.82 226.189C423.53 227.093 424.038 228.097 424.343 229.199C424.369 229.991 424.079 230.608 423.473 231.051C418.068 233.559 412.413 235.179 406.508 235.913C405.203 235.845 404.478 235.15 404.333 233.829C404.989 232.201 405.713 230.58 406.508 228.967C406.3 228.514 406.01 228.129 405.638 227.81C402.579 226.959 399.535 226.959 396.503 227.81C396.034 228.609 395.962 229.458 396.285 230.356C398.292 233.569 400.105 236.887 401.723 240.311C401.294 242.62 399.989 244.009 397.808 244.479C392.798 245.094 389.245 243.01 387.15 238.228C386.86 237.456 386.86 236.685 387.15 235.913C388.301 233.233 389.388 230.532 390.413 227.81C390.485 226.652 389.978 226.112 388.89 226.189C386.62 226.907 385.025 228.45 384.105 230.819C379.571 236.827 373.698 239.991 366.488 240.311C368.483 238.461 370.006 236.223 371.055 233.597C371.394 229.417 371.321 225.25 370.838 221.096C371.352 215.112 374.107 213.491 379.103 216.234C380.674 217.907 382.269 219.604 383.888 221.327C386.495 221.875 387.945 220.717 388.238 217.855C388.036 215.71 387.166 213.935 385.628 212.53C382.686 210.478 379.641 208.625 376.493 206.973C371.322 203.436 369.364 198.42 370.62 191.925C370.919 190.036 371.354 188.184 371.925 186.369C372.992 184.254 373.934 182.093 374.753 179.886Z" fill="#007DC1"/>
<path opacity="0.998" fill-rule="evenodd" clip-rule="evenodd" d="M422.168 184.517C427.912 184.708 429.724 187.641 427.605 193.314C424.038 196.212 421.138 195.594 418.905 191.462C418.615 190.382 418.615 189.301 418.905 188.221C419.787 186.743 420.875 185.508 422.168 184.517Z" fill="#007CC1"/>
<path opacity="0.01" fill-rule="evenodd" clip-rule="evenodd" d="M279.487 194.24C279.198 194.549 279.198 194.549 279.487 194.24V194.24Z" fill="#007F7E"/>
<path opacity="0.998" fill-rule="evenodd" clip-rule="evenodd" d="M422.603 200.723C423.389 200.719 424.114 200.95 424.778 201.417C425.971 203.576 427.421 205.505 429.128 207.205C430.781 205.525 432.521 203.905 434.348 202.343C435.048 202.01 435.7 202.087 436.305 202.575C436.001 208.011 435.348 213.413 434.348 218.781C434.278 220.952 434.786 222.958 435.87 224.8C437.719 226.154 439.315 225.845 440.655 223.874C441.495 222.278 442.073 220.58 442.395 218.781C442.221 213.998 442.078 209.214 441.96 204.427C442.774 203.884 443.57 203.962 444.353 204.658C444.949 205.854 445.601 207.012 446.31 208.131C446.897 208.83 447.624 209.293 448.485 209.52C450.764 208.732 452.722 207.42 454.358 205.585C454.919 205.358 455.502 205.28 456.098 205.353C455.484 208.208 454.614 210.987 453.488 213.688C453.627 214.219 453.914 214.605 454.358 214.845C456.306 215.248 458.194 215.866 460.013 216.697C460.426 217.03 460.5 217.415 460.23 217.855C456.92 219.148 453.514 220.151 450.008 220.864C448.559 221.636 447.106 222.408 445.658 223.18C444.205 224.654 443.696 226.429 444.135 228.504C444.783 229.201 445.579 229.586 446.528 229.662C448.559 229.971 450.586 229.971 452.618 229.662C457.281 228.692 461.779 227.226 466.103 225.263C466.172 225.899 466.098 226.517 465.885 227.115C464.319 229.062 463.084 231.223 462.188 233.598C462.501 234.629 463.079 235.478 463.928 236.144C466.124 237.002 468.012 238.314 469.583 240.08C468.995 240.726 468.269 241.035 467.408 241.006C465.241 240.544 463.066 240.467 460.883 240.775C460.639 243.433 460.204 246.057 459.578 248.646C459.36 248.723 459.143 248.8 458.925 248.878C456.998 246.512 455.406 243.888 454.14 241.006C452.117 237.77 449.433 235.378 446.093 233.829C441.951 232.994 440.577 234.77 441.96 239.154C443.609 243.358 446.145 246.831 449.573 249.572C451.904 251.121 454.227 252.664 456.533 254.202C456.472 254.56 456.324 254.869 456.098 255.129C453.631 255.435 451.239 255.975 448.92 256.749C449.329 260.108 449.546 263.504 449.573 266.936C448.977 267.008 448.394 266.931 447.833 266.704C446.153 263.987 444.126 261.594 441.743 259.527C440.233 260.596 438.78 261.754 437.393 263C436.61 263.697 435.814 263.774 435 263.232C435.857 258.798 437.162 254.476 438.915 250.267C439.702 246.178 439.415 242.166 438.045 238.228C436.357 236.499 434.543 236.421 432.608 237.996C428.3 243.38 426.488 249.631 427.17 256.749C427.026 258.141 426.663 259.453 426.083 260.685C425.432 260.92 424.924 260.688 424.56 259.99C423.913 258.005 423.332 255.999 422.82 253.971C422.594 253.501 422.232 253.192 421.733 253.045C419.649 254.077 417.62 255.234 415.643 256.518C415.08 256.744 414.5 256.822 413.903 256.749C414.478 254.045 415.566 251.575 417.165 249.341C417.378 248.742 417.451 248.124 417.383 247.489C414.676 247.094 412.066 246.323 409.553 245.173C408.973 244.71 408.973 244.247 409.553 243.784C415.579 242.855 421.234 240.771 426.518 237.533C432.889 231.571 432.744 225.706 426.083 219.938C422.603 217.623 419.123 215.308 415.643 212.993C414.357 211.543 414.646 210.617 416.513 210.215C418.253 210.061 419.993 209.906 421.733 209.752C421.95 209.52 422.168 209.289 422.385 209.057C422.043 206.277 422.115 203.499 422.603 200.723Z" fill="#007DC1"/>
<path opacity="0.999" fill-rule="evenodd" clip-rule="evenodd" d="M481.328 234.987C485.012 234.595 488.131 235.829 490.68 238.691C494.887 245.34 496.192 252.593 494.595 260.453C492.925 270.002 488.649 277.874 481.763 284.068C481.589 279.456 479.849 275.675 476.543 272.724C472.68 270.591 468.765 268.585 464.798 266.704C460.574 263.016 459.773 258.617 462.405 253.508C466.411 248.837 471.053 248.066 476.325 251.193C475.747 249.184 475.242 247.101 474.803 244.942C475.111 240.177 477.286 236.859 481.328 234.987Z" fill="#007DC1"/>
<path fill-rule="evenodd" clip-rule="evenodd" d="M313.417 240.08C313.851 240.066 314.141 240.298 314.287 240.775C314.647 243.703 315.662 246.327 317.332 248.646C318.637 249.726 319.942 250.807 321.247 251.887C333.084 255.242 337.796 263.345 335.385 276.196C333.836 284.211 329.704 290.153 322.987 294.023C308.365 301.098 295.822 298.243 285.36 285.457C281.469 279.798 279.729 273.471 280.14 266.473C280.169 263.957 281.257 262.259 283.402 261.379C284.028 261.481 284.608 261.712 285.142 262.074C292.387 270.561 301.377 273.803 312.112 271.798C315.038 271.276 317.648 270.041 319.942 268.093C321.001 266.373 321.074 264.598 320.16 262.769C317.515 260.782 314.832 258.853 312.112 256.981C309.136 253.171 308.774 249.081 311.025 244.71C311.922 243.218 312.72 241.674 313.417 240.08ZM325.597 272.029C326.594 271.911 327.537 272.065 328.425 272.492C328.376 278.887 325.839 283.903 320.812 287.541C319.248 288.132 317.653 288.286 316.027 288.004C315.759 287.355 315.615 286.661 315.592 285.92C315.76 283.248 316.123 280.624 316.68 278.048C318.682 276.718 320.785 275.561 322.987 274.576C324.073 273.959 324.943 273.111 325.597 272.029Z" fill="#007DC1"/>
<path opacity="0.999" fill-rule="evenodd" clip-rule="evenodd" d="M372.577 245.173C376.419 244.905 380.189 245.291 383.887 246.331C385.083 246.851 386.171 247.546 387.15 248.415C387.561 249.733 387.343 250.891 386.497 251.887C384.467 252.35 382.438 252.813 380.407 253.276C379.828 253.585 379.393 254.048 379.102 254.666C380.938 255.179 382.678 255.95 384.322 256.981C386.51 259.421 386.22 261.582 383.452 263.463C379.537 263.617 375.622 263.772 371.707 263.926C370.358 264.519 369.198 265.368 368.227 266.473C371.279 267.875 372.076 270.19 370.62 273.418C366.124 275.528 361.557 277.457 356.917 279.206C353.124 282.284 351.384 286.375 351.697 291.476C352.313 299.502 355.938 305.444 362.572 309.303C365.138 310.934 367.893 312.014 370.837 312.544C374.752 312.853 378.667 312.853 382.582 312.544C385.21 312.215 387.457 311.057 389.325 309.071C389.672 308.257 389.599 307.485 389.107 306.756C387.799 306.495 386.567 306.032 385.41 305.367C385.522 303.727 386.029 302.183 386.932 300.737C386.721 299.812 386.213 299.195 385.41 298.885C378.86 302.409 371.972 303.412 364.747 301.894C361.702 300.659 359.309 298.575 357.57 295.644C356.303 291.558 357.536 290.169 361.267 291.476C361.614 289.466 361.976 287.459 362.355 285.457C362.735 284.403 363.46 283.785 364.53 283.605C366.315 284.731 367.983 286.044 369.532 287.541C373.424 290.153 377.629 291.851 382.147 292.634C389.511 293.351 396.761 292.733 403.897 290.782C405.832 290.138 407.572 289.135 409.117 287.772C408.925 299.679 404.285 309.171 395.197 316.248C384.807 322.697 373.932 323.778 362.572 319.49C351.996 314.714 345.108 306.457 341.91 294.718C337.736 273.585 344.624 258.073 362.572 248.183C365.924 247.017 369.258 246.014 372.577 245.173Z" fill="#007DC1"/>
<path opacity="0.998" fill-rule="evenodd" clip-rule="evenodd" d="M391.718 247.952C403.774 250.366 410.734 258.006 412.598 270.872C411.703 281.244 406.483 285.411 396.938 283.373C391.413 280.487 389.165 275.78 390.195 269.251C391.971 264.583 393.349 259.798 394.328 254.897C394.048 252.301 393.178 249.986 391.718 247.952ZM399.983 258.601C403.7 260.516 404.932 263.603 403.68 267.862C401.977 269.112 400.382 268.958 398.895 267.399C398.907 264.416 399.27 261.483 399.983 258.601Z" fill="#007DC1"/>
<path opacity="0.998" fill-rule="evenodd" clip-rule="evenodd" d="M224.243 251.193C229.174 250.69 232.581 252.85 234.465 257.675C240.404 254.433 244.609 256.13 247.08 262.768C247.624 268.864 245.087 272.568 239.468 273.881C240.991 281.216 238.236 285.383 231.203 286.383C230.173 286.225 229.158 285.993 228.158 285.688C226.185 284.128 224.445 282.353 222.938 280.364C217.002 282.568 212.87 280.562 210.54 274.344C210.215 268.558 212.68 264.854 217.935 263.232C217.017 257.307 219.119 253.294 224.243 251.193ZM227.723 264.158C232.065 263.918 233.877 266.078 233.16 270.64C231.516 273.367 229.268 274.062 226.418 272.724C223.895 269.343 224.33 266.488 227.723 264.158Z" fill="#007DC1"/>
<path fill-rule="evenodd" clip-rule="evenodd" d="M416.512 261.842C422.39 262.077 427.102 264.7 430.65 269.714C431.879 273.215 432.024 276.765 431.085 280.363C428.327 285.034 424.484 286.5 419.557 284.762C415.91 282.535 414.533 279.217 415.425 274.807C416.441 272.185 417.093 269.484 417.382 266.704C417.434 264.996 417.144 263.375 416.512 261.842Z" fill="#007DC1"/>
<path opacity="0.999" fill-rule="evenodd" clip-rule="evenodd" d="M258.173 268.788C267.261 268.964 273.423 273.595 276.66 282.679C277.623 286.051 278.493 289.447 279.27 292.866C280.069 295.224 281.664 296.459 284.055 296.57C288.579 295.711 292.639 296.792 296.235 299.811C297.685 301.663 299.135 303.515 300.585 305.367C301.364 307.487 302.016 309.648 302.543 311.85C302.282 314.347 301.122 316.122 299.063 317.175C291.096 319.049 284.353 316.811 278.835 310.461C276.33 304.544 274.59 298.37 273.615 291.939C271.78 288.597 269.242 286.051 266.003 284.3C261.66 282.757 257.31 281.213 252.953 279.669C250.27 277.976 249.618 275.584 250.995 272.492C253.113 270.555 255.505 269.32 258.173 268.788ZM286.883 301.663C288.519 301.828 290.115 302.214 291.668 302.821C292.9 304.132 294.133 305.445 295.365 306.756C296.301 308.014 296.228 309.172 295.148 310.229C292.225 310.684 289.615 309.913 287.318 307.914C286.107 306.936 285.237 305.701 284.708 304.21C284.938 302.81 285.663 301.961 286.883 301.663Z" fill="#007DC1"/>
<path fill-rule="evenodd" clip-rule="evenodd" d="M375.623 270.177C381.067 270.407 385.055 273.03 387.585 278.048C388.44 284.079 386.047 287.088 380.408 287.077C377.575 285.991 376.125 283.83 376.058 280.595C376.173 278.636 376.463 276.707 376.928 274.807C376.658 273.177 376.223 271.634 375.623 270.177Z" fill="#007DC1"/>
<path fill-rule="evenodd" clip-rule="evenodd" d="M452.182 271.566C463.179 271.658 470.357 277.214 473.715 288.235C475.459 296.167 474.302 303.575 470.235 310.46C464.589 320.636 457.05 328.817 447.615 335.001C443.7 333.467 441.668 330.535 441.525 326.203C441.929 325.253 442.582 324.559 443.482 324.12C452.404 320.649 458.712 314.244 462.405 304.904C463.284 303.052 463.21 301.277 462.187 299.579C461.23 299.197 460.434 299.429 459.795 300.274C456.284 306.281 452.295 311.914 447.832 317.174C445.549 319.431 442.869 320.743 439.785 321.11C434.784 320.686 430.579 318.525 427.17 314.628C425.444 312.549 425.299 310.388 426.735 308.145C430.67 304.394 434.802 300.921 439.132 297.727C440.946 295.798 442.756 293.869 444.57 291.939C445.575 290.237 445.792 288.461 445.222 286.614C444.787 286.383 444.352 286.151 443.917 285.92C442.991 286.368 442.121 286.908 441.307 287.54C437.114 292.159 432.763 296.635 428.257 300.968C425.937 302.511 423.617 304.055 421.297 305.598C417.525 307.391 414.988 306.233 413.685 302.126C412.603 299.7 412.82 297.462 414.337 295.412C417.397 293.903 420.587 292.823 423.907 292.171C426.486 290.812 428.951 289.268 431.302 287.54C435.082 282.439 439.285 277.808 443.917 273.65C446.667 272.68 449.42 271.986 452.182 271.566ZM456.097 277.585C461.922 277.849 465.837 280.859 467.842 286.614C466.733 289.446 464.702 290.758 461.752 290.55C455.223 289.55 452.83 285.691 454.575 278.974C455.075 278.448 455.58 277.985 456.097 277.585Z" fill="#007DC1"/>
<path opacity="0.999" fill-rule="evenodd" clip-rule="evenodd" d="M242.948 287.772C258.84 286.785 268.917 294.502 273.18 310.923C274.535 317.106 274.535 323.28 273.18 329.444C271.484 334.954 268.222 339.044 263.393 341.715C243.704 347.553 228.987 340.993 219.24 322.036C216.534 315.514 216.245 308.877 218.37 302.126C219.982 298.56 222.23 295.55 225.113 293.097C226.093 292.564 227.108 292.41 228.158 292.634C225.215 304.184 227.535 314.37 235.118 323.194C242.595 329.786 251.005 331.638 260.348 328.75C264.237 326.729 266.485 323.411 267.09 318.795C267.796 310.552 265.259 303.684 259.478 298.19C254.007 294.641 248.497 294.487 242.948 297.727C239.607 303.883 240.622 309.13 245.993 313.47C249.096 315.416 252.431 316.034 255.998 315.322C258.645 314.759 259.805 313.138 259.478 310.46C255.297 311.062 251.599 309.827 248.385 306.756C246.532 302.675 247.692 300.205 251.865 299.348C259.439 300.883 263.572 305.745 264.263 313.933C263.988 319.476 261.378 323.181 256.433 325.046C244.061 326.301 236.014 320.667 232.29 308.145C230.584 298.171 234.137 291.379 242.948 287.772Z" fill="#007DC1"/>
<path opacity="0.999" fill-rule="evenodd" clip-rule="evenodd" d="M327.337 296.107C330.149 295.596 332.034 296.753 332.992 299.579C336.737 298.222 338.912 299.688 339.517 303.978C339.44 305.224 339.005 306.305 338.212 307.219C340.365 309.067 340.727 311.228 339.3 313.702C338.607 314.534 337.737 314.997 336.69 315.091C334.958 314.179 333.218 313.253 331.47 312.313C330.745 312.622 330.02 312.93 329.295 313.239C331.057 320.012 329.535 325.8 324.727 330.602C316.235 337.233 306.81 339.239 296.452 336.622C293.699 335.388 291.307 333.613 289.275 331.297C287.766 329.273 287.259 327.036 287.752 324.583C290.812 324.493 293.857 324.725 296.887 325.277C300.295 325.177 303.122 323.788 305.37 321.11C307.289 316.87 309.319 312.703 311.46 308.608C316.275 304.175 320.916 304.329 325.38 309.071C326.194 308.174 326.557 307.094 326.467 305.83C326.123 303.803 325.688 301.797 325.162 299.811C325.237 298.101 325.962 296.867 327.337 296.107Z" fill="#007CC1"/>
<path fill-rule="evenodd" clip-rule="evenodd" d="M409.552 314.628C414.539 314.361 419.179 315.519 423.472 318.1C426.405 324.075 424.955 328.397 419.122 331.065C413.972 332.677 408.752 332.985 403.462 331.991C397.669 330.583 395.712 326.802 397.59 320.647C398.957 318.333 400.915 316.867 403.462 316.248C405.517 315.557 407.548 315.016 409.552 314.628Z" fill="#007DC1"/>
<path fill-rule="evenodd" clip-rule="evenodd" d="M339.952 320.184C342.215 320.924 344.39 321.927 346.477 323.194C349.001 325.108 351.394 327.192 353.655 329.445C360.293 327.944 366.818 328.407 373.23 330.834C374.039 329.966 374.692 328.962 375.187 327.824C376.863 326.874 378.386 327.106 379.755 328.519C380.171 330.582 380.751 332.588 381.495 334.538C384.973 336.35 385.626 338.896 383.452 342.178C382.246 342.693 381.086 342.925 379.972 342.872C378.58 347.396 377.058 351.872 375.405 356.3C372.441 361.914 368.019 363.688 362.137 361.625C358.682 360.107 355.709 357.869 353.22 354.911C351.071 351.726 349.259 348.331 347.782 344.725C345.706 342.423 343.531 342.346 341.257 344.493C329.944 357.306 316.024 362.709 299.497 360.699C301.699 362.409 304.163 363.489 306.892 363.94C317.471 365.517 327.186 363.202 336.037 356.995C338.087 354.652 340.48 352.878 343.215 351.67C344.039 351.723 344.764 352.032 345.39 352.596C349.999 363.505 357.974 369.062 369.315 369.265C371.57 369.002 373.818 368.693 376.057 368.339C377.956 368.578 378.754 369.658 378.45 371.58C376.77 374.059 374.523 375.679 371.707 376.442C365.84 378.046 360.04 377.891 354.307 375.979C352.614 374.409 351.164 372.635 349.957 370.654C335.304 379.034 320.079 380.346 304.282 374.59C301.672 373.201 299.062 371.812 296.452 370.423C292.656 367.463 288.741 364.685 284.707 362.088C273.567 362.899 264.432 358.809 257.302 349.818C260.729 349.844 264.209 349.767 267.742 349.586C277.49 347.686 281.768 341.435 280.575 330.834C288.027 334.957 292.521 341.439 294.06 350.281C296.457 351.832 299.067 352.449 301.89 352.133C308.404 352.531 312.101 349.29 312.982 342.409C321.478 342.093 328.655 338.697 334.515 332.223C337.377 328.753 339.189 324.74 339.952 320.184ZM362.572 338.242C366.966 337.903 368.924 340.064 368.445 344.725C367.339 347.489 365.381 348.492 362.572 347.734C358.575 344.612 358.575 341.448 362.572 338.242Z" fill="#007DC1"/>
<path opacity="0.999" fill-rule="evenodd" clip-rule="evenodd" d="M429.128 328.981C434.291 330.075 436.757 333.471 436.523 339.168C436.475 343.726 435.096 347.739 432.39 351.207C420.783 364.174 406.645 369.19 389.978 366.255C386.475 363.991 384.735 360.672 384.758 356.3C385.374 348.584 388.274 342.024 393.458 336.621C394.139 336.123 394.864 335.737 395.633 335.464C401.581 337.638 407.671 338.178 413.903 337.084C418.162 335.897 422.221 334.199 426.083 331.991C427.295 331.195 428.31 330.192 429.128 328.981ZM421.733 341.483C422.166 341.443 422.528 341.598 422.82 341.946C423.49 346.912 421.822 350.693 417.818 353.29C413.889 356.228 409.539 357.463 404.768 356.995C406.159 353.369 406.739 349.588 406.508 345.65C411.988 345.721 417.063 344.332 421.733 341.483Z" fill="#007DC1"/>
<path opacity="0.999" fill-rule="evenodd" clip-rule="evenodd" d="M332.557 409.085C338.928 408.967 343.35 412.054 345.825 418.346C346.887 421.17 347.467 424.103 347.565 427.143C348.599 439.883 347.005 452.23 342.78 464.186C340.183 469.636 337.646 475.118 335.167 480.623C337.699 486.869 342.121 490.495 348.435 491.504C350.223 491.407 351.89 490.944 353.437 490.115C351.752 477.072 354.869 465.496 362.79 455.388C367.228 450.466 372.376 449.308 378.232 451.915C386.457 460.952 386.82 470.288 379.32 479.929C376.182 482.809 372.919 485.508 369.532 488.032C372.977 490.629 376.747 491.245 380.842 489.884C385.309 487.856 388.862 484.693 391.5 480.392C393.745 476.539 395.775 472.529 397.59 468.353C399.072 463.463 400.812 458.68 402.81 453.999C404.422 450.8 406.597 450.182 409.335 452.147C410.179 453.79 410.904 455.487 411.51 457.24C413.582 466.681 416.192 475.942 419.34 485.022C420.283 486.332 421.225 487.647 422.167 488.958C425.09 490.453 427.193 489.601 428.475 486.411C431.131 481.517 432.001 476.271 431.085 470.668C429.427 464.389 429.716 458.214 431.955 452.147C433.971 448.489 436.944 446.868 440.872 447.285C442.895 448.577 443.983 450.507 444.135 453.073C443.861 468.774 439.076 482.665 429.78 494.746C427.026 497.329 423.909 499.26 420.427 500.533C417.72 501.024 415.11 500.714 412.597 499.607C411.059 498.126 409.682 496.505 408.465 494.746C406.698 490.032 405.103 485.244 403.68 480.392C403.343 479.595 402.763 479.132 401.94 479.003C401.147 479.535 400.35 480.077 399.547 480.623C395.94 485.976 391.735 490.759 386.932 494.977C383.047 497.644 378.842 499.496 374.317 500.533C367.462 502.358 361.662 500.584 356.917 495.209C354.015 497.144 350.97 498.765 347.782 500.07C344.617 500.751 341.427 500.904 338.212 500.533C334.397 498.64 331.062 496.014 328.207 492.662C327.394 492.028 326.524 491.49 325.597 491.041C321.458 493.819 317.253 496.519 312.982 499.144C308.454 500.695 303.814 501.158 299.062 500.533C297.169 499.756 295.502 498.598 294.06 497.061C291.777 493.588 289.602 490.041 287.535 486.411C286.263 485.226 284.958 485.226 283.62 486.411C280.953 490.777 278.125 495.023 275.137 499.144C271.136 501.825 267.729 501.131 264.915 497.061C261.577 490.097 258.242 483.151 254.91 476.224C252.947 473.368 250.554 472.826 247.732 474.604C239.944 480.734 232.694 487.522 225.982 494.977C223.974 496.343 222.088 497.885 220.327 499.607C214.911 502.029 212.664 500.098 213.585 493.819C216.603 483.749 219.213 473.562 221.415 463.26C221.9 461.301 222.625 459.449 223.59 457.703C225.395 456.173 227.28 455.864 229.245 456.777C230.35 461.637 231.655 466.422 233.16 471.131C234.401 472.298 235.562 472.14 236.64 470.668C241.022 464.149 245.734 457.899 250.777 451.915C253.568 449.545 256.105 449.776 258.39 452.61C261.432 460.317 264.042 468.186 266.22 476.224C267.346 478.155 268.361 480.165 269.265 482.244C272.039 485.689 274.939 485.841 277.965 482.707C279.38 480.47 280.685 478.155 281.88 475.761C282.147 470.237 283.017 464.834 284.49 459.555C285.382 457.373 286.615 455.443 288.187 453.768C291.731 451.585 294.414 452.434 296.235 456.314C297.631 462.957 297.558 469.594 296.017 476.224C296.198 484.522 300.185 488.995 307.98 489.652C314.066 489.078 318.634 485.99 321.682 480.392C316.487 465.431 315.4 450.152 318.42 434.552C319.599 425.986 322.862 418.501 328.207 412.095C329.509 410.776 330.958 409.773 332.557 409.085ZM333.862 424.365C336.03 424.437 337.552 425.517 338.43 427.606C340.275 440.531 338.825 453.033 334.08 465.112C333.684 466.538 332.886 467.617 331.687 468.353C330.201 467.251 329.403 465.704 329.295 463.723C328.672 456.016 328.527 448.299 328.86 440.571C328.767 435.508 329.782 430.724 331.905 426.217C332.513 425.49 333.165 424.873 333.862 424.365ZM367.792 462.797C368.961 462.721 370.121 462.798 371.272 463.028C373.693 465.871 374.49 469.191 373.665 472.983C372.965 477.877 370.428 481.119 366.052 482.707C364.552 481.211 363.609 479.359 363.225 477.15C361.78 471.191 363.303 466.404 367.792 462.797Z" fill="#007DC1"/>
<path opacity="0.999" fill-rule="evenodd" clip-rule="evenodd" d="M292.972 412.326C297.743 411.809 300.716 413.97 301.89 418.809C302.475 424.122 300.662 428.212 296.452 431.079C291.64 432.721 288.377 431.101 286.665 426.217C285.416 419.771 287.518 415.141 292.972 412.326Z" fill="#007DC1"/>
<path opacity="0.999" fill-rule="evenodd" clip-rule="evenodd" d="M202.493 416.957C205.703 417.986 207.661 420.301 208.365 423.902C210.92 439.327 210.92 454.761 208.365 470.205C206.207 481.841 200.624 491.023 191.618 497.755C180.906 503.441 170.175 503.441 159.428 497.755C152.819 493.181 148.542 486.772 146.595 478.54C144.527 468.599 144.092 458.568 145.29 448.443C146.228 442.525 147.388 436.66 148.77 430.848C150.122 423.775 154.109 419.608 160.733 418.346C162.269 418.669 163.357 419.595 163.995 421.124C164.082 426.442 163.501 431.689 162.255 436.867C160.489 448.238 160.054 459.659 160.95 471.131C161.046 478.813 163.583 485.374 168.563 490.81C180.267 496.579 188.895 493.264 194.445 480.855C198.002 470.168 199.162 459.209 197.925 447.98C196.269 443.307 194.964 438.523 194.01 433.626C193.017 427.691 194.54 422.675 198.578 418.578C199.865 417.835 201.17 417.295 202.493 416.957Z" fill="#007DC1"/>
<path opacity="0.999" fill-rule="evenodd" clip-rule="evenodd" d="M534.832 446.127C538.726 445.821 542.493 446.361 546.142 447.748C547.682 449.23 549.057 450.851 550.275 452.61C552.032 459.145 549.783 463.003 543.532 464.186C539.883 464.088 537.347 462.235 535.92 458.629C534.245 456.964 532.431 456.887 530.482 458.398C529.321 459.324 528.164 460.25 527.002 461.176C524.732 464.366 522.626 467.686 520.695 471.131C516.732 479.466 513.108 487.953 509.82 496.598C509.024 497.755 508.223 498.913 507.427 500.07C505.887 500.765 504.291 500.922 502.642 500.533C500.141 497.755 498.471 494.44 497.64 490.578C496.944 486.013 495.93 481.535 494.595 477.15C490.662 486.985 484.211 494.315 475.237 499.144C473.815 499.7 472.362 500.163 470.887 500.533C462.94 502.571 456.197 500.487 450.66 494.282C445.392 481.836 446.553 470.103 454.14 459.092C456.815 455.783 460.078 453.39 463.927 451.915C466.681 451.606 469.439 451.606 472.192 451.915C481.319 457.071 483.859 464.713 479.805 474.835C478.278 476.785 476.612 478.558 474.802 480.16C470.448 482.438 466.028 484.522 461.535 486.411C461.396 488.286 462.192 489.597 463.927 490.347C467.081 491.069 470.274 491.222 473.497 490.81C478.456 488.596 482.445 485.124 485.46 480.392C489.666 473.747 492.568 466.491 494.16 458.629C495.191 455.679 497.079 453.673 499.815 452.61C500.515 452.888 501.094 453.351 501.555 453.999C502.077 455.515 502.512 457.058 502.86 458.629C503.508 465.69 504.665 472.636 506.34 479.466C507.223 481.021 508.241 481.174 509.385 479.929C512.269 471.626 515.897 463.755 520.26 456.314C524.057 451.102 528.912 447.706 534.832 446.127ZM463.057 461.87C468.504 461.572 470.896 464.352 470.235 470.205C469.678 472.344 468.734 474.27 467.407 475.993C464.784 478.086 461.883 479.549 458.707 480.392C457.685 475.423 457.903 470.483 459.36 465.575C460.547 464.232 461.778 462.997 463.057 461.87Z" fill="#007DC1"/>
</svg>
