<svg width="583" height="348" viewBox="0 0 583 348" fill="none" xmlns="http://www.w3.org/2000/svg">
<path d="M404.785 0.208961C376.309 2.24628 356.673 21.708 352.561 52.0533C351.688 58.4869 352.253 74.0885 353.538 79.986C358.318 101.324 371.271 115.585 391.061 121.161C395.584 122.394 396.921 122.555 406.07 122.555C414.192 122.609 416.762 122.394 419.691 121.644C425.243 120.089 433.056 115.907 436.757 112.476C438.453 110.814 439.995 109.473 440.149 109.473C440.303 109.473 440.663 111.886 441.023 114.835L441.64 120.196H453.411H465.182V88.028V55.8599H439.995H414.808V68.4591V81.0583L423.033 81.1655L431.205 81.3263L430.28 83.4709C427.556 89.7437 419.537 94.4617 411.621 94.4617C400.313 94.4617 393.014 88.1889 389.776 75.6969C388.337 70.3355 388.542 53.4473 390.033 47.657C392.346 38.918 396.15 33.2349 401.65 30.2862C406.79 27.5519 415.836 28.088 420.976 31.4657C424.163 33.5566 428.687 39.9902 428.687 42.4565C428.687 42.8318 434.752 42.9926 446.215 42.9926H463.742L463.383 41.0089C463.177 39.883 462.457 37.0415 461.738 34.6825C454.696 11.1461 433.261 -1.82836 404.785 0.208961Z" fill="black"/>
<path d="M522.237 0.369392C521.826 0.476616 519.718 0.851913 517.611 1.17359C503.064 3.63982 491.396 11.4138 486.718 21.8148C484.457 26.8009 483.686 30.7683 483.686 37.2555C483.686 47.3349 485.947 53.4469 492.167 59.8805C494.943 62.7756 496.999 64.3304 500.905 66.4213C507.587 69.9598 511.185 71.193 526.092 75.1067C540.022 78.7525 545.11 80.9506 546.858 83.953C549.222 87.9204 547.629 92.0486 542.9 94.354C540.227 95.6944 539.456 95.8016 533.545 95.8016C527.531 95.8016 526.914 95.6944 524.19 94.3004C520.9 92.5848 517.508 88.9391 516.788 86.312L516.274 84.5427L498.695 84.3819L481.116 84.2747V85.7759C481.116 86.6337 481.527 88.9927 482.041 91.03C484.817 101.967 492.218 110.921 503.218 116.657C511.699 121.054 519.821 122.876 531.181 122.876C544.545 122.876 553.9 120.946 563.101 116.175C573.638 110.813 580.063 102.611 582.428 91.5125C583.199 87.8132 583.199 78.6989 582.376 75.1604C580.937 68.6195 577.185 62.7756 571.89 58.701C565.362 53.6613 557.909 50.6589 541.512 46.2626C529.69 43.153 526.04 41.9199 522.905 39.9898C517.611 36.773 517.199 30.7147 522.083 28.1948C523.676 27.3906 525.218 27.1762 530.204 27.1762C535.601 27.1762 536.732 27.337 539.096 28.4629C541.872 29.7496 543.671 31.7333 544.648 34.6285L545.213 36.2905L562.69 36.4513L580.217 36.5586L579.446 32.9665C575.694 15.3812 563.718 4.3368 544.648 0.905525C540.69 0.208549 524.961 -0.166748 522.237 0.369392Z" fill="black"/>
<path d="M0 3.69346C0.0514013 4.22959 6.27096 30.6075 13.8269 62.2931L27.6539 119.928L45.6443 120.089L63.6862 120.196L64.2002 117.408C64.5086 115.853 67.3357 100.949 70.4198 84.2747C76.2795 53.1788 76.4337 52.321 76.8449 52.7499C77.0505 52.9644 89.9523 119.177 89.9523 120.035C89.9523 120.142 98.0223 120.196 107.943 120.196H125.882L126.447 118.051C127.886 112.422 153.69 3.80068 153.69 3.31816C153.69 2.46034 118.788 2.56757 118.48 3.42539C118.326 3.80068 115.499 19.7775 112.158 38.9176C108.817 58.0576 105.887 73.82 105.578 73.9273C105.321 74.0345 102.237 58.4866 98.7419 39.4001C95.2466 20.2601 92.1625 4.17598 91.8541 3.63985C91.3915 2.6748 90.7747 2.62119 76.6907 2.94286C68.6207 3.15732 61.9386 3.42539 61.7843 3.58623C61.6301 3.74707 58.5975 19.5631 55.0508 38.8104C51.4527 58.004 48.3172 73.82 48.0602 73.9273C47.7518 74.0345 44.9761 59.5588 41.4294 39.132C38.037 19.8848 35.2099 3.80068 35.0557 3.42539C34.9015 2.94286 30.8922 2.78203 17.425 2.78203C1.18223 2.78203 0 2.83564 0 3.69346Z" fill="black"/>
<path d="M167.054 61.4889V120.196H185.302H203.549V61.4889V2.78204H185.302H167.054V61.4889Z" fill="black"/>
<path d="M226.68 61.4889V120.196H244.208H261.787L261.427 94.8366C261.273 80.9507 260.964 66.7967 260.81 63.419C260.605 59.3444 260.656 57.4143 261.016 57.6824C261.324 57.8432 270.062 71.5683 280.445 88.1885C290.828 104.755 299.67 118.748 300.081 119.231C300.8 120.142 302.291 120.196 317.763 120.196H334.622V61.4889V2.83565H317.454C302.445 2.83565 300.235 2.94288 299.978 3.63985C299.412 5.14103 299.721 37.6845 300.389 51.8385C301.057 64.7593 301.057 66.6358 300.492 65.9925C300.389 65.8852 293.45 54.8408 285.072 41.4911C276.693 28.1413 267.749 13.9873 265.231 10.0199L260.605 2.78204H243.642H226.68V61.4889Z" fill="black"/>
<path d="M21.3314 142.821C21.9996 145.073 24.7752 149.898 27.3453 153.222C35.3125 163.516 49.8077 171.933 66.3075 175.793L70.4196 176.758L72.4756 181.047C78.6438 193.915 90.1063 202.278 103.471 203.619C107.172 203.994 107.172 203.994 110.975 207.693C119.508 216.003 129.737 221.472 141.353 223.992C146.134 225.064 156.465 225.332 162.89 224.582L166.694 224.099L164.073 227.101C160.886 230.801 158.727 234.661 157.339 239.218C156.363 242.596 155.489 247.207 155.849 247.314C155.9 247.314 160.32 247.528 165.666 247.743C170.96 248.011 175.484 248.332 175.689 248.547C175.895 248.761 176.101 252.246 176.203 256.214L176.409 263.505L182.526 263.13L188.643 262.754V269.992V277.177L194.245 277.552L199.848 277.927L200.208 284.2C200.465 287.792 200.825 290.58 201.184 290.794C201.493 291.009 203.035 291.223 204.577 291.223C206.119 291.223 208.638 291.384 210.128 291.545L212.801 291.92V298.247V304.627H215.268C216.656 304.627 219.895 304.788 222.413 304.948L227.039 305.324L228.479 309.13C233.824 323.713 245.955 336.634 259.988 342.692C274.483 349.019 294.889 349.769 310.309 344.515C326.552 338.993 339.968 326.072 346.239 309.881L347.935 305.431L354.514 305.002C358.113 304.734 361.402 304.466 361.762 304.359C362.225 304.198 362.379 302.429 362.379 298.032V291.92L365.103 291.545C366.542 291.384 368.958 291.223 370.346 291.223C371.785 291.223 373.225 291.009 373.584 290.794C373.996 290.473 374.407 288.114 374.715 284.2C374.972 280.822 375.229 278.034 375.229 278.034C375.229 277.981 377.748 277.766 380.883 277.552L386.537 277.177V269.939V262.754L392.346 263.13L398.206 263.505L398.514 261.736C398.72 260.771 398.874 257.393 398.874 254.23V248.493L401.598 248.118C403.037 247.957 406.944 247.796 410.233 247.796C413.523 247.796 416.916 247.635 417.738 247.475C419.28 247.153 419.28 247.153 418.869 244.472C417.892 237.985 414.86 231.498 410.388 226.351L408.434 224.099L412.29 224.582C418.509 225.279 428.995 225.01 433.724 223.992C445.238 221.472 455.981 215.682 464.462 207.318C467.803 204.048 467.957 203.94 471.401 203.619C485.434 202.171 496.279 194.075 503.116 179.921L504.709 176.651L507.793 176.008C512.522 175.043 521.928 171.826 526.709 169.52C538.274 163.945 547.938 154.938 552.512 145.555C553.386 143.732 554.106 142.07 554.106 141.909C554.106 141.749 501.06 141.695 436.294 141.802C329.379 141.909 318.225 142.017 316.118 142.767C307.482 146.038 303.216 150.166 300.029 158.422C299.052 160.996 298.898 162.604 298.641 177.562C298.384 192.95 298.281 194.022 297.253 196.059C293.501 203.404 285.534 205.066 280.24 199.544C276.796 196.006 276.847 196.059 276.487 178.099C276.23 163.033 276.128 161.478 275.048 158.53C272.067 150.005 266.67 145.073 257.674 142.66C253.871 141.641 250.838 141.641 137.395 141.641H21.0229L21.3314 142.821ZM297.613 244.097C314.987 248.6 327.426 265.328 327.426 284.254C327.426 295.941 323.725 305.216 315.861 313.473C311.183 318.405 307.122 321.193 301.314 323.391C285.997 329.182 269.651 325.161 258.445 312.776C250.375 303.822 246.88 293.261 247.805 280.501C248.731 268.33 255.002 257.071 264.716 250.102C274.483 243.132 285.791 241.095 297.613 244.097Z" fill="black"/>
<path d="M278.595 249.887C264.1 253.962 254.282 266.24 252.638 282.27L252.278 285.862H257.367H262.404L263.072 281.68C263.843 276.426 266.465 270.85 269.703 267.312L272.17 264.685L272.427 291.599C272.581 306.396 272.838 318.62 272.993 318.834C273.404 319.21 280.497 321.783 281.217 321.783C281.474 321.783 281.731 308.594 281.782 290.795L281.936 259.859L285.175 259.431L288.362 258.948V253.908V248.869L285.175 248.922C283.376 248.922 280.446 249.351 278.595 249.887Z" fill="black"/>
<path d="M291.445 285.004C291.445 318.62 291.497 321.247 292.319 321.247C292.782 321.247 294.992 320.764 297.202 320.121L301.212 318.995V306.717V294.44H306.866H312.468L313.034 292.402C313.342 291.33 313.702 289.025 313.908 287.309L314.216 284.253H307.688H301.212V274.067C301.212 268.437 301.417 263.88 301.674 263.88C302.291 263.88 308.356 270.743 309.025 272.19C309.436 273.209 310.053 273.423 312.931 273.745C314.833 273.906 317.352 274.067 318.585 274.067C320.641 274.067 320.795 273.959 320.436 272.834C319.665 270.26 316.889 265.06 314.73 262.164C312.417 259.108 308.254 255.409 304.707 253.318C302.24 251.817 296.431 249.619 293.656 249.136L291.445 248.761V285.004Z" fill="black"/>
</svg>
